<?xml version="1.0" encoding="utf-8"?>
<!-- Generator: Adobe Illustrator 17.1.0, SVG Export Plug-In . SVG Version: 6.00 Build 0)  -->
<!DOCTYPE svg PUBLIC "-//W3C//DTD SVG 1.1//EN" "http://www.w3.org/Graphics/SVG/1.1/DTD/svg11.dtd">
<svg version="1.1" xmlns="http://www.w3.org/2000/svg" xmlns:xlink="http://www.w3.org/1999/xlink" x="0px" y="0px"
	 viewBox="0 0 347.429 44.667" enable-background="new 0 0 347.429 44.667" xml:space="preserve">
<g id="Layer_2">
</g>
<g id="Layer_1">
	<g>
		<path fill="#FFFFFF" d="M56.87,39.109l3.98-7.187h0.736l1.418,7.187h-0.886l-0.414-2.164h-2.68l-1.187,2.164H56.87z
			 M59.453,36.155h2.1l-0.258-1.38c-0.118-0.635-0.208-1.159-0.269-1.574h-0.021c-0.19,0.437-0.476,1.003-0.859,1.697L59.453,36.155
			z"/>
		<path fill="#FFFFFF" d="M70.163,34.947c-0.032,0.096-0.072,0.207-0.118,0.332c-0.046,0.126-0.099,0.258-0.156,0.398
			c-0.057,0.139-0.117,0.284-0.18,0.435c-0.063,0.15-0.126,0.299-0.191,0.446l-1.112,2.551h-0.875l-0.886-5.103h0.849l0.349,2.282
			c0.032,0.208,0.061,0.398,0.086,0.572s0.047,0.335,0.067,0.483c0.02,0.148,0.038,0.287,0.054,0.414
			c0.017,0.127,0.032,0.249,0.046,0.368h0.027c0.032-0.098,0.071-0.203,0.116-0.317c0.044-0.114,0.09-0.231,0.137-0.349
			c0.046-0.119,0.093-0.235,0.14-0.35s0.091-0.221,0.134-0.316l1.214-2.788h0.902l0.285,2.776c0.011,0.098,0.021,0.203,0.029,0.317
			c0.009,0.114,0.019,0.231,0.03,0.349c0.011,0.119,0.021,0.236,0.03,0.353c0.009,0.116,0.015,0.225,0.019,0.325h0.027
			c0.089-0.227,0.191-0.455,0.306-0.688c0.115-0.233,0.224-0.446,0.328-0.64l1.488-2.793h0.945l-2.841,5.103H70.55l-0.247-2.567
			c-0.014-0.14-0.028-0.284-0.041-0.433c-0.012-0.148-0.023-0.293-0.032-0.435c-0.009-0.142-0.017-0.275-0.024-0.4
			s-0.011-0.234-0.011-0.327H70.163z"/>
		<path fill="#FFFFFF" d="M75.964,34.699c0.218-0.258,0.474-0.46,0.766-0.606c0.292-0.146,0.613-0.22,0.964-0.22
			c0.211,0,0.405,0.027,0.58,0.083s0.325,0.135,0.448,0.239c0.124,0.104,0.22,0.232,0.288,0.387
			c0.068,0.153,0.102,0.329,0.102,0.525c0,0.141-0.012,0.289-0.035,0.446c-0.023,0.157-0.053,0.318-0.088,0.483l-0.639,3.072h-0.833
			l0.65-3.143c0.04-0.182,0.064-0.326,0.075-0.432s0.016-0.186,0.016-0.239c0-0.129-0.02-0.239-0.059-0.33
			c-0.04-0.092-0.092-0.165-0.158-0.221c-0.066-0.056-0.147-0.097-0.242-0.123c-0.095-0.027-0.198-0.04-0.309-0.04
			c-0.24,0-0.464,0.043-0.671,0.131s-0.392,0.209-0.553,0.363c-0.161,0.153-0.297,0.334-0.408,0.542s-0.191,0.434-0.242,0.677
			l-0.585,2.814h-0.833l1.617-7.777h0.833l-0.704,3.367H75.964z"/>
		<path fill="#FFFFFF" d="M84.649,35.881c0,0.223-0.023,0.461-0.07,0.715s-0.118,0.506-0.215,0.755s-0.219,0.487-0.368,0.717
			c-0.148,0.229-0.326,0.431-0.531,0.604c-0.206,0.174-0.44,0.312-0.704,0.416c-0.263,0.104-0.559,0.156-0.889,0.156
			c-0.272,0-0.521-0.043-0.747-0.127s-0.417-0.208-0.575-0.373s-0.28-0.366-0.368-0.604c-0.087-0.238-0.131-0.511-0.131-0.819
			c0-0.225,0.022-0.467,0.067-0.725c0.045-0.258,0.116-0.515,0.212-0.771s0.219-0.502,0.368-0.736
			c0.149-0.234,0.325-0.442,0.529-0.623s0.438-0.325,0.704-0.433s0.561-0.16,0.886-0.16c0.276,0,0.525,0.042,0.749,0.126
			c0.224,0.084,0.417,0.209,0.578,0.376c0.161,0.166,0.286,0.375,0.374,0.625C84.605,35.251,84.649,35.545,84.649,35.881z
			 M82.769,34.582c-0.208,0-0.397,0.039-0.569,0.117c-0.172,0.079-0.328,0.186-0.467,0.32c-0.14,0.134-0.262,0.291-0.368,0.47
			c-0.105,0.179-0.194,0.369-0.266,0.569s-0.125,0.406-0.161,0.617c-0.036,0.212-0.054,0.416-0.054,0.613
			c0,0.186,0.021,0.355,0.062,0.51c0.042,0.154,0.105,0.285,0.191,0.395s0.195,0.193,0.328,0.253
			c0.132,0.059,0.288,0.089,0.467,0.089c0.204,0,0.393-0.04,0.567-0.119c0.173-0.078,0.33-0.185,0.47-0.319
			c0.14-0.134,0.262-0.29,0.368-0.467c0.105-0.178,0.194-0.366,0.266-0.567c0.072-0.2,0.125-0.406,0.161-0.617
			s0.054-0.417,0.054-0.617c0-0.19-0.021-0.361-0.062-0.514c-0.042-0.152-0.105-0.282-0.191-0.392s-0.195-0.193-0.328-0.253
			C83.104,34.611,82.949,34.582,82.769,34.582z"/>
		<path fill="#FFFFFF" d="M86.894,39.142c-0.057,0.015-0.131,0.026-0.223,0.035c-0.091,0.009-0.185,0.013-0.282,0.013
			c-0.301,0-0.527-0.059-0.679-0.177c-0.152-0.118-0.229-0.305-0.229-0.559c0-0.107,0.014-0.232,0.043-0.376l1.413-6.746h0.833
			l-1.364,6.525c-0.032,0.162-0.048,0.278-0.048,0.35c0,0.09,0.025,0.155,0.075,0.196s0.134,0.062,0.252,0.062
			s0.236-0.011,0.354-0.032L86.894,39.142z"/>
		<path fill="#FFFFFF" d="M89.532,39.142c-0.057,0.015-0.131,0.026-0.223,0.035c-0.091,0.009-0.185,0.013-0.282,0.013
			c-0.301,0-0.527-0.059-0.679-0.177c-0.152-0.118-0.229-0.305-0.229-0.559c0-0.107,0.014-0.232,0.043-0.376l1.413-6.746h0.833
			l-1.364,6.525c-0.032,0.162-0.048,0.278-0.048,0.35c0,0.09,0.025,0.155,0.075,0.196s0.134,0.062,0.252,0.062
			s0.236-0.011,0.354-0.032L89.532,39.142z"/>
		<path fill="#FFFFFF" d="M90.939,34.007h0.859l0.886,4.034h0.021l2.175-4.034h0.961l-2.917,5.247
			c-0.179,0.322-0.351,0.619-0.516,0.89s-0.338,0.509-0.521,0.717c-0.247,0.286-0.52,0.505-0.819,0.655
			c-0.299,0.15-0.651,0.226-1.056,0.226c-0.075,0-0.151-0.003-0.229-0.008c-0.077-0.006-0.156-0.016-0.239-0.03l0.15-0.719
			c0.054,0.007,0.106,0.013,0.159,0.019c0.052,0.005,0.103,0.008,0.153,0.008c0.215,0,0.414-0.038,0.596-0.115
			s0.357-0.195,0.523-0.354c0.167-0.159,0.329-0.363,0.486-0.612s0.319-0.546,0.483-0.89L90.939,34.007z"/>
		<path fill="#FFFFFF" d="M102.696,35.881c0,0.223-0.023,0.461-0.07,0.715s-0.118,0.506-0.215,0.755s-0.219,0.487-0.368,0.717
			c-0.148,0.229-0.326,0.431-0.531,0.604c-0.206,0.174-0.44,0.312-0.704,0.416c-0.263,0.104-0.559,0.156-0.889,0.156
			c-0.272,0-0.521-0.043-0.747-0.127s-0.417-0.208-0.575-0.373s-0.28-0.366-0.368-0.604c-0.087-0.238-0.131-0.511-0.131-0.819
			c0-0.225,0.022-0.467,0.067-0.725c0.045-0.258,0.116-0.515,0.212-0.771s0.219-0.502,0.368-0.736
			c0.149-0.234,0.325-0.442,0.529-0.623s0.438-0.325,0.704-0.433s0.561-0.16,0.886-0.16c0.276,0,0.525,0.042,0.749,0.126
			c0.224,0.084,0.417,0.209,0.578,0.376c0.161,0.166,0.286,0.375,0.374,0.625C102.652,35.251,102.696,35.545,102.696,35.881z
			 M100.816,34.582c-0.208,0-0.397,0.039-0.569,0.117c-0.172,0.079-0.328,0.186-0.467,0.32c-0.14,0.134-0.262,0.291-0.368,0.47
			c-0.105,0.179-0.194,0.369-0.266,0.569s-0.125,0.406-0.161,0.617c-0.036,0.212-0.054,0.416-0.054,0.613
			c0,0.186,0.021,0.355,0.062,0.51c0.042,0.154,0.105,0.285,0.191,0.395s0.195,0.193,0.328,0.253
			c0.132,0.059,0.288,0.089,0.467,0.089c0.204,0,0.393-0.04,0.567-0.119c0.173-0.078,0.33-0.185,0.47-0.319
			c0.14-0.134,0.262-0.29,0.368-0.467c0.105-0.178,0.194-0.366,0.266-0.567c0.072-0.2,0.125-0.406,0.161-0.617
			s0.054-0.417,0.054-0.617c0-0.19-0.021-0.361-0.062-0.514c-0.042-0.152-0.105-0.282-0.191-0.392s-0.195-0.193-0.328-0.253
			C101.151,34.611,100.995,34.582,100.816,34.582z"/>
		<path fill="#FFFFFF" d="M107.197,34.947c-0.032,0.096-0.072,0.207-0.118,0.332c-0.046,0.126-0.099,0.258-0.156,0.398
			c-0.057,0.139-0.117,0.284-0.18,0.435c-0.063,0.15-0.126,0.299-0.191,0.446l-1.112,2.551h-0.875l-0.886-5.103h0.849l0.349,2.282
			c0.032,0.208,0.061,0.398,0.086,0.572s0.047,0.335,0.067,0.483c0.02,0.148,0.038,0.287,0.054,0.414
			c0.017,0.127,0.032,0.249,0.046,0.368h0.027c0.032-0.098,0.071-0.203,0.116-0.317c0.044-0.114,0.09-0.231,0.137-0.349
			c0.046-0.119,0.093-0.235,0.14-0.35s0.091-0.221,0.134-0.316l1.214-2.788h0.902l0.285,2.776c0.011,0.098,0.021,0.203,0.029,0.317
			c0.009,0.114,0.019,0.231,0.03,0.349c0.011,0.119,0.021,0.236,0.03,0.353c0.009,0.116,0.015,0.225,0.019,0.325h0.027
			c0.089-0.227,0.191-0.455,0.306-0.688c0.115-0.233,0.224-0.446,0.328-0.64l1.488-2.793h0.945l-2.841,5.103h-0.859l-0.247-2.567
			c-0.014-0.14-0.028-0.284-0.041-0.433c-0.012-0.148-0.023-0.293-0.032-0.435c-0.009-0.142-0.017-0.275-0.024-0.4
			s-0.011-0.234-0.011-0.327H107.197z"/>
		<path fill="#FFFFFF" d="M112.01,39.109h-0.833l1.063-5.103h0.682v0.692h0.021c0.218-0.258,0.476-0.46,0.771-0.606
			c0.296-0.146,0.628-0.22,0.997-0.22c0.204,0,0.391,0.027,0.561,0.083c0.17,0.056,0.315,0.135,0.436,0.239
			c0.12,0.104,0.214,0.232,0.282,0.387c0.068,0.153,0.102,0.329,0.102,0.525c0,0.141-0.012,0.289-0.035,0.446
			c-0.023,0.157-0.053,0.318-0.088,0.483l-0.639,3.072h-0.833l0.655-3.169c0.057-0.262,0.086-0.477,0.086-0.645
			c0-0.129-0.019-0.239-0.056-0.33c-0.038-0.092-0.091-0.165-0.159-0.221s-0.149-0.097-0.245-0.123
			c-0.095-0.027-0.198-0.04-0.309-0.04c-0.24,0-0.464,0.043-0.671,0.131s-0.392,0.209-0.553,0.363
			c-0.161,0.153-0.297,0.334-0.408,0.542s-0.191,0.434-0.242,0.677L112.01,39.109z"/>
		<path fill="#FFFFFF" d="M121.377,35.193c0,0.319-0.079,0.586-0.236,0.801s-0.386,0.389-0.685,0.521
			c-0.299,0.132-0.666,0.229-1.099,0.292s-0.927,0.102-1.482,0.116c-0.003,0.039-0.006,0.078-0.008,0.117
			c-0.002,0.04-0.003,0.083-0.003,0.129c0,0.466,0.116,0.807,0.349,1.021s0.582,0.322,1.047,0.322c0.122,0,0.248-0.009,0.379-0.024
			c0.13-0.017,0.26-0.04,0.389-0.07s0.253-0.065,0.374-0.104c0.12-0.039,0.228-0.082,0.325-0.129l-0.15,0.763
			c-0.183,0.082-0.398,0.152-0.647,0.21c-0.249,0.057-0.519,0.086-0.809,0.086c-0.365,0-0.68-0.051-0.942-0.15
			c-0.264-0.101-0.48-0.241-0.65-0.422c-0.17-0.181-0.295-0.396-0.376-0.645c-0.08-0.249-0.121-0.522-0.121-0.819
			c0-0.272,0.027-0.544,0.081-0.816s0.133-0.532,0.239-0.778c0.105-0.248,0.236-0.477,0.392-0.688
			c0.156-0.212,0.336-0.396,0.54-0.551c0.204-0.156,0.433-0.278,0.685-0.368c0.253-0.09,0.526-0.134,0.819-0.134
			c0.211,0,0.413,0.025,0.604,0.077c0.191,0.052,0.36,0.133,0.507,0.242s0.263,0.247,0.349,0.413
			C121.334,34.772,121.377,34.969,121.377,35.193z M118.031,36.177c0.394,0,0.747-0.02,1.058-0.06
			c0.312-0.039,0.575-0.099,0.79-0.18c0.215-0.08,0.379-0.185,0.494-0.312s0.172-0.282,0.172-0.464c0-0.076-0.016-0.148-0.048-0.218
			c-0.032-0.07-0.081-0.132-0.145-0.186s-0.144-0.097-0.239-0.129c-0.095-0.032-0.204-0.048-0.325-0.048
			c-0.204,0-0.398,0.037-0.583,0.112c-0.184,0.075-0.353,0.183-0.505,0.322c-0.152,0.14-0.285,0.308-0.4,0.505
			S118.095,35.937,118.031,36.177z"/>
		<path fill="#FFFFFF" d="M123.472,39.244c-0.226,0-0.426-0.041-0.602-0.121c-0.175-0.081-0.324-0.196-0.446-0.347
			s-0.215-0.331-0.279-0.542c-0.064-0.212-0.097-0.446-0.097-0.704c0-0.301,0.026-0.601,0.078-0.899
			c0.052-0.299,0.128-0.584,0.229-0.854s0.224-0.521,0.371-0.755c0.147-0.232,0.315-0.434,0.505-0.604s0.404-0.304,0.642-0.4
			c0.238-0.097,0.484-0.145,0.738-0.145c0.293,0,0.544,0.058,0.752,0.174s0.369,0.275,0.483,0.476h0.021l0.666-3.19h0.833
			l-1.375,6.602c-0.011,0.057-0.02,0.113-0.027,0.169s-0.011,0.101-0.011,0.137c0,0.086,0.023,0.148,0.07,0.188
			c0.046,0.039,0.132,0.059,0.258,0.059c0.043,0,0.098-0.003,0.164-0.008c0.066-0.006,0.13-0.014,0.191-0.024l-0.145,0.688
			c-0.054,0.015-0.127,0.026-0.22,0.035s-0.186,0.013-0.279,0.013c-0.297,0-0.512-0.069-0.645-0.209s-0.195-0.376-0.188-0.709
			h-0.021c-0.122,0.179-0.253,0.33-0.395,0.454c-0.142,0.123-0.285,0.224-0.43,0.301c-0.146,0.077-0.29,0.132-0.433,0.166
			S123.6,39.244,123.472,39.244z M125.738,35.15c-0.046-0.064-0.103-0.13-0.169-0.198c-0.066-0.068-0.143-0.129-0.229-0.183
			s-0.184-0.098-0.293-0.132c-0.109-0.034-0.23-0.051-0.362-0.051c-0.204,0-0.393,0.046-0.566,0.137
			c-0.174,0.092-0.327,0.212-0.459,0.362s-0.248,0.323-0.346,0.519c-0.099,0.195-0.18,0.396-0.245,0.604s-0.112,0.414-0.142,0.62
			c-0.031,0.206-0.046,0.396-0.046,0.572c0,0.226,0.023,0.412,0.07,0.559s0.107,0.263,0.183,0.347s0.161,0.143,0.258,0.177
			s0.195,0.052,0.295,0.052c0.175,0,0.354-0.046,0.537-0.138c0.183-0.091,0.354-0.224,0.516-0.397s0.305-0.387,0.433-0.639
			c0.127-0.253,0.223-0.54,0.287-0.862L125.738,35.15z"/>
		<path fill="#FFFFFF" d="M131.05,35.377c0,0.11,0.022,0.206,0.067,0.287c0.045,0.08,0.105,0.15,0.18,0.209
			c0.075,0.06,0.163,0.11,0.263,0.153s0.206,0.084,0.317,0.124c0.154,0.053,0.31,0.111,0.467,0.174s0.301,0.144,0.43,0.242
			s0.234,0.223,0.317,0.373s0.124,0.344,0.124,0.58c0,0.283-0.053,0.531-0.158,0.746c-0.106,0.215-0.253,0.396-0.44,0.54
			c-0.188,0.146-0.412,0.255-0.672,0.328c-0.259,0.073-0.543,0.11-0.851,0.11c-0.276,0-0.554-0.03-0.835-0.089
			c-0.281-0.06-0.502-0.138-0.663-0.233l0.156-0.699c0.19,0.083,0.396,0.155,0.621,0.218c0.224,0.062,0.464,0.095,0.722,0.095
			c0.279,0,0.504-0.033,0.674-0.1c0.17-0.066,0.302-0.147,0.397-0.242c0.095-0.095,0.157-0.194,0.188-0.298
			c0.031-0.104,0.046-0.193,0.046-0.269c0-0.14-0.032-0.256-0.097-0.35c-0.064-0.093-0.148-0.172-0.252-0.236
			s-0.222-0.12-0.354-0.169c-0.132-0.048-0.269-0.098-0.408-0.147c-0.132-0.05-0.263-0.106-0.392-0.169s-0.243-0.14-0.341-0.231
			c-0.099-0.091-0.178-0.204-0.239-0.338c-0.061-0.135-0.091-0.299-0.091-0.492c0-0.275,0.05-0.515,0.15-0.717
			s0.235-0.37,0.406-0.505c0.17-0.134,0.366-0.234,0.588-0.301s0.457-0.099,0.704-0.099c0.147,0,0.292,0.01,0.435,0.029
			s0.281,0.045,0.414,0.078c0.132,0.031,0.257,0.068,0.374,0.109c0.116,0.041,0.219,0.085,0.309,0.132l-0.145,0.688
			c-0.215-0.093-0.436-0.171-0.664-0.233c-0.227-0.062-0.454-0.094-0.679-0.094c-0.172,0-0.324,0.021-0.457,0.062
			s-0.244,0.097-0.333,0.166c-0.089,0.07-0.158,0.153-0.204,0.25S131.05,35.262,131.05,35.377z"/>
		<path fill="#FFFFFF" d="M136.19,39.244c-0.308,0-0.575-0.039-0.8-0.116s-0.411-0.184-0.556-0.319
			c-0.145-0.136-0.252-0.297-0.322-0.483c-0.069-0.187-0.104-0.389-0.104-0.606c0-0.079,0.004-0.161,0.014-0.245
			c0.009-0.084,0.024-0.178,0.045-0.282l0.661-3.185h0.833l-0.65,3.132c-0.018,0.089-0.032,0.174-0.043,0.255
			c-0.011,0.08-0.016,0.158-0.016,0.233c0,0.136,0.018,0.261,0.054,0.373c0.036,0.113,0.092,0.209,0.169,0.287
			c0.077,0.079,0.177,0.141,0.301,0.184c0.123,0.043,0.273,0.064,0.448,0.064c0.222,0,0.415-0.032,0.577-0.095
			c0.163-0.062,0.302-0.153,0.417-0.273s0.208-0.263,0.279-0.427c0.072-0.165,0.129-0.35,0.172-0.554l0.661-3.18h0.833l-0.693,3.319
			c-0.043,0.208-0.101,0.408-0.175,0.602c-0.073,0.193-0.167,0.371-0.282,0.531c-0.172,0.236-0.406,0.427-0.704,0.57
			C137.01,39.172,136.638,39.244,136.19,39.244z"/>
		<path fill="#FFFFFF" d="M141.271,34.668c0.079-0.111,0.167-0.215,0.263-0.312c0.097-0.096,0.204-0.181,0.322-0.252
			s0.248-0.128,0.389-0.169c0.142-0.041,0.295-0.062,0.459-0.062c0.19,0,0.378,0.031,0.564,0.096s0.353,0.169,0.5,0.312
			c0.147,0.143,0.265,0.327,0.354,0.553s0.134,0.5,0.134,0.822c0,0.265-0.024,0.537-0.072,0.818
			c-0.049,0.281-0.124,0.555-0.226,0.819c-0.103,0.265-0.23,0.516-0.384,0.752s-0.337,0.443-0.55,0.62
			c-0.213,0.178-0.455,0.318-0.726,0.422c-0.27,0.104-0.572,0.156-0.905,0.156c-0.247,0-0.467-0.039-0.661-0.116
			s-0.357-0.183-0.491-0.316c-0.135-0.135-0.236-0.295-0.307-0.481c-0.069-0.186-0.104-0.388-0.104-0.606
			c0-0.093,0.005-0.185,0.016-0.274c0.011-0.089,0.027-0.186,0.048-0.289l1.219-5.828h0.833l-0.698,3.336H141.271z M140.74,37.144
			c-0.018,0.086-0.034,0.171-0.048,0.255s-0.021,0.173-0.021,0.266c0,0.27,0.072,0.481,0.215,0.637
			c0.143,0.156,0.347,0.234,0.612,0.234c0.215,0,0.413-0.043,0.594-0.129c0.181-0.086,0.342-0.201,0.483-0.344
			c0.141-0.144,0.266-0.311,0.373-0.5s0.196-0.391,0.266-0.602c0.07-0.211,0.123-0.42,0.159-0.626s0.054-0.401,0.054-0.588
			c0-0.146-0.017-0.289-0.051-0.427c-0.034-0.138-0.088-0.262-0.164-0.371s-0.173-0.196-0.292-0.263
			c-0.12-0.066-0.266-0.1-0.438-0.1c-0.147,0-0.298,0.03-0.454,0.091c-0.156,0.062-0.305,0.156-0.446,0.285
			c-0.141,0.129-0.269,0.292-0.381,0.488c-0.113,0.197-0.198,0.432-0.255,0.704L140.74,37.144z"/>
		<path fill="#FFFFFF" d="M146.277,35.377c0,0.11,0.022,0.206,0.067,0.287c0.045,0.08,0.105,0.15,0.18,0.209
			c0.075,0.06,0.163,0.11,0.263,0.153s0.206,0.084,0.317,0.124c0.154,0.053,0.31,0.111,0.467,0.174s0.301,0.144,0.43,0.242
			s0.234,0.223,0.317,0.373s0.124,0.344,0.124,0.58c0,0.283-0.053,0.531-0.158,0.746c-0.106,0.215-0.253,0.396-0.44,0.54
			c-0.188,0.146-0.412,0.255-0.672,0.328c-0.259,0.073-0.543,0.11-0.851,0.11c-0.276,0-0.554-0.03-0.835-0.089
			c-0.281-0.06-0.502-0.138-0.663-0.233l0.156-0.699c0.19,0.083,0.396,0.155,0.621,0.218c0.224,0.062,0.464,0.095,0.722,0.095
			c0.279,0,0.504-0.033,0.674-0.1c0.17-0.066,0.302-0.147,0.397-0.242c0.095-0.095,0.157-0.194,0.188-0.298
			c0.031-0.104,0.046-0.193,0.046-0.269c0-0.14-0.032-0.256-0.097-0.35c-0.064-0.093-0.148-0.172-0.252-0.236
			s-0.222-0.12-0.354-0.169c-0.132-0.048-0.269-0.098-0.408-0.147c-0.132-0.05-0.263-0.106-0.392-0.169s-0.243-0.14-0.341-0.231
			c-0.099-0.091-0.178-0.204-0.239-0.338c-0.061-0.135-0.091-0.299-0.091-0.492c0-0.275,0.05-0.515,0.15-0.717
			s0.235-0.37,0.406-0.505c0.17-0.134,0.366-0.234,0.588-0.301s0.457-0.099,0.704-0.099c0.147,0,0.292,0.01,0.435,0.029
			s0.281,0.045,0.414,0.078c0.132,0.031,0.257,0.068,0.374,0.109c0.116,0.041,0.219,0.085,0.309,0.132l-0.145,0.688
			c-0.215-0.093-0.436-0.171-0.664-0.233c-0.227-0.062-0.454-0.094-0.679-0.094c-0.172,0-0.324,0.021-0.457,0.062
			s-0.244,0.097-0.333,0.166c-0.089,0.07-0.158,0.153-0.204,0.25S146.277,35.262,146.277,35.377z"/>
		<path fill="#FFFFFF" d="M149.339,39.109l1.058-5.103h0.833l-1.058,5.103H149.339z M150.622,32.82l0.188-0.919h0.875l-0.188,0.919
			H150.622z"/>
		<path fill="#FFFFFF" d="M153.27,39.244c-0.226,0-0.426-0.041-0.602-0.121c-0.175-0.081-0.324-0.196-0.446-0.347
			s-0.215-0.331-0.279-0.542c-0.064-0.212-0.097-0.446-0.097-0.704c0-0.301,0.026-0.601,0.078-0.899
			c0.052-0.299,0.128-0.584,0.229-0.854s0.224-0.521,0.371-0.755c0.147-0.232,0.315-0.434,0.505-0.604s0.404-0.304,0.642-0.4
			c0.238-0.097,0.484-0.145,0.738-0.145c0.293,0,0.544,0.058,0.752,0.174s0.369,0.275,0.483,0.476h0.021l0.666-3.19h0.833
			l-1.375,6.602c-0.011,0.057-0.02,0.113-0.027,0.169s-0.011,0.101-0.011,0.137c0,0.086,0.023,0.148,0.07,0.188
			c0.046,0.039,0.132,0.059,0.258,0.059c0.043,0,0.098-0.003,0.164-0.008c0.066-0.006,0.13-0.014,0.191-0.024l-0.145,0.688
			c-0.054,0.015-0.127,0.026-0.22,0.035s-0.186,0.013-0.279,0.013c-0.297,0-0.512-0.069-0.645-0.209s-0.195-0.376-0.188-0.709
			h-0.021c-0.122,0.179-0.253,0.33-0.395,0.454c-0.142,0.123-0.285,0.224-0.43,0.301c-0.146,0.077-0.29,0.132-0.433,0.166
			S153.399,39.244,153.27,39.244z M155.537,35.15c-0.046-0.064-0.103-0.13-0.169-0.198c-0.066-0.068-0.143-0.129-0.229-0.183
			s-0.184-0.098-0.293-0.132c-0.109-0.034-0.23-0.051-0.362-0.051c-0.204,0-0.393,0.046-0.566,0.137
			c-0.174,0.092-0.327,0.212-0.459,0.362s-0.248,0.323-0.346,0.519c-0.099,0.195-0.18,0.396-0.245,0.604s-0.112,0.414-0.142,0.62
			c-0.031,0.206-0.046,0.396-0.046,0.572c0,0.226,0.023,0.412,0.07,0.559s0.107,0.263,0.183,0.347s0.161,0.143,0.258,0.177
			s0.195,0.052,0.295,0.052c0.175,0,0.354-0.046,0.537-0.138c0.183-0.091,0.354-0.224,0.516-0.397s0.305-0.387,0.433-0.639
			c0.127-0.253,0.223-0.54,0.287-0.862L155.537,35.15z"/>
		<path fill="#FFFFFF" d="M157.326,39.109l1.058-5.103h0.833l-1.058,5.103H157.326z M158.609,32.82l0.188-0.919h0.875l-0.188,0.919
			H158.609z"/>
		<path fill="#FFFFFF" d="M162.868,38.271c-0.122,0.179-0.252,0.33-0.392,0.454c-0.14,0.123-0.281,0.224-0.424,0.301
			s-0.286,0.132-0.427,0.166c-0.142,0.034-0.277,0.052-0.406,0.052c-0.222,0-0.419-0.041-0.591-0.121
			c-0.172-0.081-0.317-0.196-0.435-0.347s-0.208-0.331-0.269-0.542c-0.061-0.212-0.091-0.446-0.091-0.704
			c0-0.29,0.025-0.581,0.075-0.873s0.125-0.573,0.223-0.846c0.098-0.272,0.221-0.525,0.368-0.76s0.315-0.439,0.505-0.615
			s0.401-0.313,0.634-0.413c0.233-0.101,0.487-0.15,0.763-0.15c0.272,0,0.512,0.056,0.72,0.169c0.208,0.112,0.367,0.271,0.478,0.476
			h0.021l0.247-0.511h0.677l-0.822,3.927c-0.025,0.136-0.038,0.237-0.038,0.306c0,0.086,0.024,0.148,0.072,0.188
			c0.049,0.039,0.134,0.059,0.255,0.059c0.1,0,0.218-0.011,0.354-0.032l-0.145,0.688c-0.15,0.032-0.317,0.048-0.5,0.048
			c-0.297,0-0.512-0.069-0.645-0.209s-0.195-0.376-0.188-0.709H162.868z M163.47,35.15c-0.046-0.064-0.101-0.13-0.164-0.198
			c-0.062-0.068-0.135-0.13-0.217-0.186s-0.174-0.1-0.277-0.134c-0.102-0.034-0.217-0.051-0.346-0.051
			c-0.211,0-0.403,0.046-0.575,0.139c-0.172,0.094-0.324,0.216-0.457,0.368s-0.247,0.327-0.344,0.524
			c-0.097,0.196-0.176,0.399-0.239,0.609c-0.063,0.209-0.109,0.416-0.14,0.62c-0.031,0.204-0.046,0.391-0.046,0.559
			c0,0.226,0.021,0.412,0.062,0.559c0.042,0.146,0.098,0.263,0.169,0.347s0.154,0.143,0.247,0.177s0.19,0.052,0.29,0.052
			c0.175,0,0.354-0.046,0.535-0.138c0.181-0.091,0.35-0.224,0.507-0.397s0.299-0.387,0.424-0.639c0.125-0.253,0.222-0.54,0.29-0.862
			L163.47,35.15z"/>
		<path fill="#FFFFFF" d="M168.761,34.716c-0.111-0.015-0.22-0.021-0.328-0.021c-0.25,0-0.476,0.042-0.677,0.126
			s-0.374,0.199-0.521,0.344c-0.147,0.146-0.268,0.315-0.362,0.511c-0.095,0.195-0.166,0.401-0.212,0.62l-0.585,2.814h-0.833
			l1.063-5.103h0.682v0.692h0.021c0.086-0.114,0.181-0.222,0.285-0.322c0.104-0.1,0.22-0.188,0.349-0.263s0.27-0.134,0.422-0.177
			c0.152-0.043,0.317-0.064,0.497-0.064c0.064,0,0.127,0.002,0.188,0.008c0.061,0.005,0.12,0.014,0.177,0.023L168.761,34.716z"/>
		<path fill="#FFFFFF" d="M169.11,34.007h0.859l0.887,4.034h0.021l2.175-4.034h0.962l-2.917,5.247
			c-0.179,0.322-0.351,0.619-0.516,0.89s-0.339,0.509-0.521,0.717c-0.248,0.286-0.521,0.505-0.819,0.655
			c-0.299,0.15-0.651,0.226-1.056,0.226c-0.075,0-0.151-0.003-0.229-0.008c-0.077-0.006-0.156-0.016-0.239-0.03l0.15-0.719
			c0.054,0.007,0.106,0.013,0.159,0.019c0.052,0.005,0.103,0.008,0.153,0.008c0.215,0,0.414-0.038,0.596-0.115
			s0.357-0.195,0.523-0.354c0.167-0.159,0.329-0.363,0.486-0.612s0.318-0.546,0.483-0.89L169.11,34.007z"/>
		<path fill="#FFFFFF" d="M180.868,35.881c0,0.223-0.023,0.461-0.07,0.715s-0.118,0.506-0.215,0.755s-0.22,0.487-0.368,0.717
			s-0.325,0.431-0.531,0.604s-0.44,0.312-0.704,0.416c-0.263,0.104-0.56,0.156-0.889,0.156c-0.272,0-0.521-0.043-0.746-0.127
			c-0.227-0.084-0.418-0.208-0.575-0.373s-0.28-0.366-0.368-0.604s-0.131-0.511-0.131-0.819c0-0.225,0.021-0.467,0.066-0.725
			s0.115-0.515,0.213-0.771c0.096-0.256,0.219-0.502,0.367-0.736s0.325-0.442,0.529-0.623s0.438-0.325,0.703-0.433
			c0.266-0.107,0.561-0.16,0.887-0.16c0.275,0,0.525,0.042,0.749,0.126s0.417,0.209,0.577,0.376
			c0.162,0.166,0.286,0.375,0.374,0.625C180.824,35.251,180.868,35.545,180.868,35.881z M178.987,34.582
			c-0.207,0-0.396,0.039-0.568,0.117c-0.172,0.079-0.328,0.186-0.468,0.32c-0.14,0.134-0.263,0.291-0.368,0.47
			s-0.194,0.369-0.266,0.569s-0.125,0.406-0.161,0.617c-0.036,0.212-0.054,0.416-0.054,0.613c0,0.186,0.021,0.355,0.062,0.51
			s0.104,0.285,0.19,0.395s0.195,0.193,0.328,0.253c0.133,0.059,0.288,0.089,0.467,0.089c0.205,0,0.394-0.04,0.567-0.119
			c0.174-0.078,0.33-0.185,0.47-0.319c0.14-0.134,0.263-0.29,0.368-0.467c0.105-0.178,0.194-0.366,0.266-0.567
			c0.071-0.2,0.125-0.406,0.161-0.617s0.054-0.417,0.054-0.617c0-0.19-0.021-0.361-0.062-0.514s-0.105-0.282-0.191-0.392
			s-0.194-0.193-0.327-0.253C179.322,34.611,179.166,34.582,178.987,34.582z"/>
		<path fill="#FFFFFF" d="M182.554,39.812c-0.076,0.362-0.18,0.666-0.312,0.911c-0.132,0.245-0.291,0.442-0.478,0.593
			s-0.396,0.259-0.631,0.325s-0.49,0.1-0.766,0.1c-0.165,0-0.313-0.013-0.446-0.038c-0.132-0.024-0.229-0.048-0.289-0.069
			l0.134-0.709c0.082,0.028,0.176,0.051,0.279,0.067c0.104,0.016,0.198,0.023,0.284,0.023c0.208,0,0.388-0.025,0.54-0.077
			s0.287-0.14,0.403-0.264c0.116-0.123,0.216-0.285,0.298-0.485c0.082-0.201,0.154-0.45,0.215-0.747l0.988-4.722h-0.94l0.15-0.714
			h0.94l0.183-0.886c0.136-0.652,0.39-1.136,0.76-1.451c0.371-0.314,0.821-0.473,1.352-0.473c0.172,0,0.328,0.013,0.47,0.038
			s0.251,0.052,0.33,0.081l-0.129,0.692c-0.107-0.028-0.215-0.05-0.322-0.064s-0.213-0.021-0.317-0.021
			c-0.357,0-0.645,0.103-0.861,0.309s-0.37,0.525-0.459,0.959l-0.167,0.816h1.401l-0.15,0.714h-1.401L182.554,39.812z"/>
		<path fill="#FFFFFF" d="M193.709,34.678c0,0.266-0.023,0.542-0.07,0.83c-0.046,0.288-0.121,0.576-0.225,0.862
			c-0.104,0.286-0.239,0.564-0.406,0.835c-0.166,0.271-0.368,0.521-0.606,0.75c-0.238,0.229-0.515,0.43-0.83,0.604
			s-0.675,0.309-1.079,0.406c-0.205,0.046-0.426,0.082-0.664,0.107c-0.238,0.024-0.52,0.037-0.846,0.037h-1.703l1.494-7.187h1.814
			c0.244,0,0.462,0.011,0.653,0.032s0.369,0.054,0.534,0.097c0.333,0.086,0.623,0.211,0.87,0.376s0.448,0.36,0.604,0.588
			c0.155,0.228,0.271,0.481,0.346,0.763C193.672,34.06,193.709,34.359,193.709,34.678z M192.796,34.587
			c0-0.254-0.03-0.479-0.091-0.674c-0.062-0.195-0.147-0.364-0.258-0.508c-0.111-0.144-0.242-0.263-0.393-0.357
			s-0.315-0.169-0.494-0.223c-0.129-0.039-0.27-0.068-0.422-0.086s-0.341-0.026-0.566-0.026h-1.09l-1.166,5.607h0.72
			c0.283,0,0.532-0.013,0.747-0.038s0.409-0.061,0.585-0.107c0.329-0.09,0.618-0.212,0.867-0.368
			c0.249-0.155,0.463-0.335,0.642-0.537c0.18-0.202,0.329-0.421,0.449-0.655s0.214-0.47,0.281-0.706
			c0.068-0.236,0.117-0.468,0.146-0.695S192.796,34.776,192.796,34.587z"/>
		<path fill="#FFFFFF" d="M197.523,38.271c-0.122,0.179-0.253,0.33-0.392,0.454c-0.141,0.123-0.281,0.224-0.425,0.301
			s-0.285,0.132-0.427,0.166s-0.277,0.052-0.406,0.052c-0.222,0-0.418-0.041-0.59-0.121c-0.172-0.081-0.317-0.196-0.436-0.347
			s-0.208-0.331-0.269-0.542c-0.061-0.212-0.091-0.446-0.091-0.704c0-0.29,0.024-0.581,0.074-0.873
			c0.051-0.292,0.125-0.573,0.224-0.846s0.221-0.525,0.368-0.76c0.146-0.234,0.314-0.439,0.504-0.615
			c0.19-0.176,0.401-0.313,0.635-0.413c0.232-0.101,0.486-0.15,0.762-0.15c0.272,0,0.513,0.056,0.721,0.169
			c0.207,0.112,0.366,0.271,0.478,0.476h0.021l0.247-0.511h0.677l-0.821,3.927c-0.025,0.136-0.038,0.237-0.038,0.306
			c0,0.086,0.024,0.148,0.072,0.188c0.049,0.039,0.134,0.059,0.255,0.059c0.101,0,0.219-0.011,0.355-0.032l-0.146,0.688
			c-0.15,0.032-0.317,0.048-0.499,0.048c-0.298,0-0.513-0.069-0.645-0.209c-0.133-0.14-0.195-0.376-0.188-0.709H197.523z
			 M198.124,35.15c-0.047-0.064-0.102-0.13-0.164-0.198s-0.135-0.13-0.218-0.186c-0.082-0.056-0.174-0.1-0.276-0.134
			c-0.102-0.034-0.218-0.051-0.347-0.051c-0.211,0-0.402,0.046-0.574,0.139c-0.172,0.094-0.324,0.216-0.457,0.368
			c-0.132,0.152-0.246,0.327-0.344,0.524c-0.096,0.196-0.176,0.399-0.238,0.609c-0.062,0.209-0.109,0.416-0.14,0.62
			s-0.046,0.391-0.046,0.559c0,0.226,0.021,0.412,0.062,0.559s0.098,0.263,0.169,0.347c0.072,0.084,0.154,0.143,0.248,0.177
			c0.093,0.034,0.189,0.052,0.289,0.052c0.176,0,0.354-0.046,0.535-0.138c0.181-0.091,0.35-0.224,0.508-0.397
			c0.157-0.174,0.299-0.387,0.424-0.639c0.125-0.253,0.222-0.54,0.29-0.862L198.124,35.15z"/>
		<path fill="#FFFFFF" d="M201.057,34.007l0.564,2.755c0.061,0.305,0.112,0.566,0.153,0.785c0.041,0.218,0.074,0.413,0.099,0.585
			h0.021c0.083-0.168,0.18-0.354,0.291-0.556c0.11-0.202,0.23-0.418,0.359-0.647l1.644-2.922h0.956l-3.002,5.103h-0.79l-1.117-5.103
			H201.057z"/>
		<path fill="#FFFFFF" d="M209.544,35.193c0,0.319-0.079,0.586-0.236,0.801s-0.386,0.389-0.685,0.521
			c-0.299,0.132-0.665,0.229-1.099,0.292s-0.928,0.102-1.482,0.116c-0.004,0.039-0.006,0.078-0.008,0.117
			c-0.002,0.04-0.003,0.083-0.003,0.129c0,0.466,0.116,0.807,0.35,1.021c0.232,0.215,0.581,0.322,1.047,0.322
			c0.122,0,0.248-0.009,0.379-0.024c0.131-0.017,0.26-0.04,0.389-0.07s0.254-0.065,0.374-0.104s0.228-0.082,0.325-0.129l-0.15,0.763
			c-0.184,0.082-0.398,0.152-0.647,0.21c-0.249,0.057-0.519,0.086-0.809,0.086c-0.365,0-0.68-0.051-0.942-0.15
			c-0.264-0.101-0.48-0.241-0.65-0.422s-0.295-0.396-0.376-0.645c-0.08-0.249-0.12-0.522-0.12-0.819c0-0.272,0.026-0.544,0.08-0.816
			s0.134-0.532,0.239-0.778c0.105-0.248,0.236-0.477,0.392-0.688c0.156-0.212,0.336-0.396,0.54-0.551
			c0.204-0.156,0.433-0.278,0.685-0.368c0.253-0.09,0.525-0.134,0.819-0.134c0.211,0,0.413,0.025,0.604,0.077
			s0.36,0.133,0.508,0.242c0.146,0.109,0.263,0.247,0.349,0.413C209.501,34.772,209.544,34.969,209.544,35.193z M206.198,36.177
			c0.395,0,0.747-0.02,1.059-0.06c0.312-0.039,0.574-0.099,0.789-0.18c0.215-0.08,0.38-0.185,0.494-0.312
			c0.115-0.127,0.172-0.282,0.172-0.464c0-0.076-0.016-0.148-0.048-0.218c-0.032-0.07-0.081-0.132-0.146-0.186
			s-0.144-0.097-0.238-0.129s-0.203-0.048-0.325-0.048c-0.204,0-0.398,0.037-0.583,0.112s-0.353,0.183-0.505,0.322
			s-0.285,0.308-0.399,0.505C206.352,35.719,206.262,35.937,206.198,36.177z"/>
		<path fill="#FFFFFF" d="M211.376,35.377c0,0.11,0.021,0.206,0.066,0.287c0.045,0.08,0.105,0.15,0.18,0.209
			c0.076,0.06,0.163,0.11,0.264,0.153s0.206,0.084,0.316,0.124c0.154,0.053,0.311,0.111,0.468,0.174s0.301,0.144,0.43,0.242
			s0.234,0.223,0.317,0.373c0.082,0.15,0.123,0.344,0.123,0.58c0,0.283-0.053,0.531-0.158,0.746s-0.253,0.396-0.44,0.54
			c-0.188,0.146-0.412,0.255-0.672,0.328s-0.543,0.11-0.851,0.11c-0.276,0-0.555-0.03-0.836-0.089
			c-0.281-0.06-0.502-0.138-0.663-0.233l0.155-0.699c0.19,0.083,0.397,0.155,0.621,0.218s0.465,0.095,0.723,0.095
			c0.279,0,0.504-0.033,0.674-0.1s0.303-0.147,0.397-0.242s0.157-0.194,0.188-0.298s0.046-0.193,0.046-0.269
			c0-0.14-0.032-0.256-0.097-0.35c-0.064-0.093-0.148-0.172-0.253-0.236c-0.104-0.064-0.222-0.12-0.354-0.169
			c-0.133-0.048-0.27-0.098-0.408-0.147c-0.133-0.05-0.264-0.106-0.393-0.169s-0.242-0.14-0.341-0.231
			c-0.099-0.091-0.179-0.204-0.239-0.338c-0.061-0.135-0.092-0.299-0.092-0.492c0-0.275,0.051-0.515,0.15-0.717
			c0.101-0.202,0.236-0.37,0.406-0.505c0.17-0.134,0.366-0.234,0.588-0.301s0.457-0.099,0.703-0.099c0.147,0,0.292,0.01,0.436,0.029
			s0.281,0.045,0.414,0.078c0.132,0.031,0.257,0.068,0.373,0.109s0.219,0.085,0.309,0.132l-0.145,0.688
			c-0.215-0.093-0.437-0.171-0.664-0.233s-0.453-0.094-0.68-0.094c-0.172,0-0.323,0.021-0.456,0.062s-0.243,0.097-0.333,0.166
			c-0.09,0.07-0.157,0.153-0.204,0.25S211.376,35.262,211.376,35.377z"/>
		<path fill="#FFFFFF" d="M219.835,38.271c-0.122,0.179-0.253,0.33-0.392,0.454c-0.141,0.123-0.281,0.224-0.425,0.301
			s-0.285,0.132-0.427,0.166s-0.277,0.052-0.406,0.052c-0.222,0-0.418-0.041-0.59-0.121c-0.172-0.081-0.317-0.196-0.436-0.347
			s-0.208-0.331-0.269-0.542c-0.061-0.212-0.091-0.446-0.091-0.704c0-0.29,0.024-0.581,0.074-0.873
			c0.051-0.292,0.125-0.573,0.224-0.846s0.221-0.525,0.368-0.76c0.146-0.234,0.314-0.439,0.504-0.615
			c0.19-0.176,0.401-0.313,0.635-0.413c0.232-0.101,0.486-0.15,0.762-0.15c0.272,0,0.513,0.056,0.721,0.169
			c0.207,0.112,0.366,0.271,0.478,0.476h0.021l0.247-0.511h0.677l-0.821,3.927c-0.025,0.136-0.038,0.237-0.038,0.306
			c0,0.086,0.024,0.148,0.072,0.188c0.049,0.039,0.134,0.059,0.255,0.059c0.101,0,0.219-0.011,0.355-0.032l-0.146,0.688
			c-0.15,0.032-0.317,0.048-0.499,0.048c-0.298,0-0.513-0.069-0.645-0.209c-0.133-0.14-0.195-0.376-0.188-0.709H219.835z
			 M220.437,35.15c-0.047-0.064-0.102-0.13-0.164-0.198s-0.135-0.13-0.218-0.186c-0.082-0.056-0.174-0.1-0.276-0.134
			c-0.102-0.034-0.218-0.051-0.347-0.051c-0.211,0-0.402,0.046-0.574,0.139c-0.172,0.094-0.324,0.216-0.457,0.368
			c-0.132,0.152-0.246,0.327-0.344,0.524c-0.096,0.196-0.176,0.399-0.238,0.609c-0.062,0.209-0.109,0.416-0.14,0.62
			s-0.046,0.391-0.046,0.559c0,0.226,0.021,0.412,0.062,0.559s0.098,0.263,0.169,0.347c0.072,0.084,0.154,0.143,0.248,0.177
			c0.093,0.034,0.189,0.052,0.289,0.052c0.176,0,0.354-0.046,0.535-0.138c0.181-0.091,0.35-0.224,0.508-0.397
			c0.157-0.174,0.299-0.387,0.424-0.639c0.125-0.253,0.222-0.54,0.29-0.862L220.437,35.15z"/>
		<path fill="#FFFFFF" d="M223.042,39.109h-0.833l1.064-5.103h0.682v0.692h0.021c0.219-0.258,0.476-0.46,0.771-0.606
			c0.296-0.146,0.628-0.22,0.997-0.22c0.203,0,0.391,0.027,0.561,0.083s0.315,0.135,0.436,0.239c0.12,0.104,0.214,0.232,0.281,0.387
			c0.068,0.153,0.103,0.329,0.103,0.525c0,0.141-0.012,0.289-0.035,0.446s-0.053,0.318-0.089,0.483l-0.639,3.072h-0.832l0.654-3.169
			c0.058-0.262,0.086-0.477,0.086-0.645c0-0.129-0.019-0.239-0.056-0.33c-0.038-0.092-0.091-0.165-0.159-0.221
			c-0.067-0.056-0.149-0.097-0.244-0.123c-0.095-0.027-0.197-0.04-0.309-0.04c-0.24,0-0.464,0.043-0.672,0.131
			c-0.207,0.088-0.392,0.209-0.553,0.363c-0.161,0.153-0.297,0.334-0.408,0.542s-0.191,0.434-0.242,0.677L223.042,39.109z"/>
		<path fill="#FFFFFF" d="M229.488,39.244c-0.226,0-0.426-0.041-0.602-0.121c-0.176-0.081-0.324-0.196-0.446-0.347
			c-0.121-0.15-0.215-0.331-0.279-0.542c-0.064-0.212-0.096-0.446-0.096-0.704c0-0.301,0.025-0.601,0.077-0.899
			s0.128-0.584,0.229-0.854s0.224-0.521,0.37-0.755c0.147-0.232,0.315-0.434,0.506-0.604c0.189-0.17,0.403-0.304,0.642-0.4
			s0.484-0.145,0.738-0.145c0.294,0,0.544,0.058,0.752,0.174s0.369,0.275,0.483,0.476h0.021l0.666-3.19h0.832l-1.375,6.602
			c-0.01,0.057-0.02,0.113-0.026,0.169s-0.011,0.101-0.011,0.137c0,0.086,0.023,0.148,0.07,0.188
			c0.046,0.039,0.132,0.059,0.258,0.059c0.043,0,0.097-0.003,0.163-0.008c0.066-0.006,0.13-0.014,0.19-0.024l-0.145,0.688
			c-0.054,0.015-0.127,0.026-0.221,0.035c-0.093,0.009-0.186,0.013-0.279,0.013c-0.297,0-0.512-0.069-0.645-0.209
			c-0.132-0.14-0.194-0.376-0.188-0.709h-0.021c-0.122,0.179-0.253,0.33-0.395,0.454c-0.142,0.123-0.285,0.224-0.43,0.301
			c-0.146,0.077-0.289,0.132-0.433,0.166S229.617,39.244,229.488,39.244z M231.754,35.15c-0.047-0.064-0.103-0.13-0.169-0.198
			s-0.143-0.129-0.229-0.183s-0.184-0.098-0.293-0.132s-0.229-0.051-0.362-0.051c-0.204,0-0.393,0.046-0.566,0.137
			c-0.174,0.092-0.327,0.212-0.459,0.362c-0.133,0.15-0.248,0.323-0.347,0.519s-0.181,0.396-0.245,0.604s-0.111,0.414-0.142,0.62
			s-0.046,0.396-0.046,0.572c0,0.226,0.023,0.412,0.07,0.559c0.046,0.146,0.107,0.263,0.182,0.347
			c0.076,0.084,0.162,0.143,0.258,0.177c0.098,0.034,0.195,0.052,0.296,0.052c0.176,0,0.354-0.046,0.537-0.138
			c0.183-0.091,0.354-0.224,0.516-0.397s0.306-0.387,0.433-0.639c0.127-0.253,0.223-0.54,0.287-0.862L231.754,35.15z"/>
		<path fill="#FFFFFF" d="M234.912,39.109l3.98-7.187h0.735l1.418,7.187h-0.886l-0.414-2.164h-2.68l-1.188,2.164H234.912z
			 M237.496,36.155h2.1l-0.258-1.38c-0.118-0.635-0.208-1.159-0.269-1.574h-0.021c-0.189,0.437-0.477,1.003-0.859,1.697
			L237.496,36.155z"/>
		<path fill="#FFFFFF" d="M243.469,35.377c0,0.11,0.021,0.206,0.066,0.287c0.045,0.08,0.105,0.15,0.18,0.209
			c0.076,0.06,0.163,0.11,0.264,0.153s0.206,0.084,0.316,0.124c0.154,0.053,0.311,0.111,0.468,0.174s0.301,0.144,0.43,0.242
			s0.234,0.223,0.317,0.373c0.082,0.15,0.123,0.344,0.123,0.58c0,0.283-0.053,0.531-0.158,0.746s-0.253,0.396-0.44,0.54
			c-0.188,0.146-0.412,0.255-0.672,0.328s-0.543,0.11-0.851,0.11c-0.276,0-0.555-0.03-0.836-0.089
			c-0.281-0.06-0.502-0.138-0.663-0.233l0.155-0.699c0.19,0.083,0.397,0.155,0.621,0.218s0.465,0.095,0.723,0.095
			c0.279,0,0.504-0.033,0.674-0.1s0.303-0.147,0.397-0.242s0.157-0.194,0.188-0.298s0.046-0.193,0.046-0.269
			c0-0.14-0.032-0.256-0.097-0.35c-0.064-0.093-0.148-0.172-0.253-0.236c-0.104-0.064-0.222-0.12-0.354-0.169
			c-0.133-0.048-0.27-0.098-0.408-0.147c-0.133-0.05-0.264-0.106-0.393-0.169s-0.242-0.14-0.341-0.231
			c-0.099-0.091-0.179-0.204-0.239-0.338c-0.061-0.135-0.092-0.299-0.092-0.492c0-0.275,0.051-0.515,0.15-0.717
			c0.101-0.202,0.236-0.37,0.406-0.505c0.17-0.134,0.366-0.234,0.588-0.301s0.457-0.099,0.703-0.099c0.147,0,0.292,0.01,0.436,0.029
			s0.281,0.045,0.414,0.078c0.132,0.031,0.257,0.068,0.373,0.109s0.219,0.085,0.309,0.132l-0.145,0.688
			c-0.215-0.093-0.437-0.171-0.664-0.233s-0.453-0.094-0.68-0.094c-0.172,0-0.323,0.021-0.456,0.062s-0.243,0.097-0.333,0.166
			c-0.09,0.07-0.157,0.153-0.204,0.25S243.469,35.262,243.469,35.377z"/>
		<path fill="#FFFFFF" d="M247.852,35.377c0,0.11,0.021,0.206,0.066,0.287c0.045,0.08,0.105,0.15,0.18,0.209
			c0.076,0.06,0.163,0.11,0.264,0.153s0.206,0.084,0.316,0.124c0.154,0.053,0.311,0.111,0.468,0.174s0.301,0.144,0.43,0.242
			s0.234,0.223,0.317,0.373c0.082,0.15,0.123,0.344,0.123,0.58c0,0.283-0.053,0.531-0.158,0.746s-0.253,0.396-0.44,0.54
			c-0.188,0.146-0.412,0.255-0.672,0.328s-0.543,0.11-0.851,0.11c-0.276,0-0.555-0.03-0.836-0.089
			c-0.281-0.06-0.502-0.138-0.663-0.233l0.155-0.699c0.19,0.083,0.397,0.155,0.621,0.218s0.465,0.095,0.723,0.095
			c0.279,0,0.504-0.033,0.674-0.1s0.303-0.147,0.397-0.242s0.157-0.194,0.188-0.298s0.046-0.193,0.046-0.269
			c0-0.14-0.032-0.256-0.097-0.35c-0.064-0.093-0.148-0.172-0.253-0.236c-0.104-0.064-0.222-0.12-0.354-0.169
			c-0.133-0.048-0.27-0.098-0.408-0.147c-0.133-0.05-0.264-0.106-0.393-0.169s-0.242-0.14-0.341-0.231
			c-0.099-0.091-0.179-0.204-0.239-0.338c-0.061-0.135-0.092-0.299-0.092-0.492c0-0.275,0.051-0.515,0.15-0.717
			c0.101-0.202,0.236-0.37,0.406-0.505c0.17-0.134,0.366-0.234,0.588-0.301s0.457-0.099,0.703-0.099c0.147,0,0.292,0.01,0.436,0.029
			s0.281,0.045,0.414,0.078c0.132,0.031,0.257,0.068,0.373,0.109s0.219,0.085,0.309,0.132l-0.145,0.688
			c-0.215-0.093-0.437-0.171-0.664-0.233s-0.453-0.094-0.68-0.094c-0.172,0-0.323,0.021-0.456,0.062s-0.243,0.097-0.333,0.166
			c-0.09,0.07-0.157,0.153-0.204,0.25S247.852,35.262,247.852,35.377z"/>
		<path fill="#FFFFFF" d="M255.672,35.881c0,0.223-0.023,0.461-0.07,0.715s-0.118,0.506-0.215,0.755s-0.22,0.487-0.368,0.717
			s-0.325,0.431-0.531,0.604s-0.44,0.312-0.704,0.416c-0.263,0.104-0.56,0.156-0.889,0.156c-0.272,0-0.521-0.043-0.746-0.127
			c-0.227-0.084-0.418-0.208-0.575-0.373s-0.28-0.366-0.368-0.604s-0.131-0.511-0.131-0.819c0-0.225,0.021-0.467,0.066-0.725
			s0.115-0.515,0.213-0.771c0.096-0.256,0.219-0.502,0.367-0.736s0.325-0.442,0.529-0.623s0.438-0.325,0.703-0.433
			c0.266-0.107,0.561-0.16,0.887-0.16c0.275,0,0.525,0.042,0.749,0.126s0.417,0.209,0.577,0.376
			c0.162,0.166,0.286,0.375,0.374,0.625C255.628,35.251,255.672,35.545,255.672,35.881z M253.791,34.582
			c-0.207,0-0.396,0.039-0.568,0.117c-0.172,0.079-0.328,0.186-0.468,0.32c-0.14,0.134-0.263,0.291-0.368,0.47
			s-0.194,0.369-0.266,0.569s-0.125,0.406-0.161,0.617c-0.036,0.212-0.054,0.416-0.054,0.613c0,0.186,0.021,0.355,0.062,0.51
			s0.104,0.285,0.19,0.395s0.195,0.193,0.328,0.253c0.133,0.059,0.288,0.089,0.467,0.089c0.205,0,0.394-0.04,0.567-0.119
			c0.174-0.078,0.33-0.185,0.47-0.319c0.14-0.134,0.263-0.29,0.368-0.467c0.105-0.178,0.194-0.366,0.266-0.567
			c0.071-0.2,0.125-0.406,0.161-0.617s0.054-0.417,0.054-0.617c0-0.19-0.021-0.361-0.062-0.514s-0.105-0.282-0.191-0.392
			s-0.194-0.193-0.327-0.253C254.126,34.611,253.971,34.582,253.791,34.582z"/>
		<path fill="#FFFFFF" d="M260.462,34.866c-0.172-0.079-0.36-0.144-0.566-0.193s-0.398-0.075-0.577-0.075
			c-0.24,0-0.459,0.043-0.658,0.129c-0.198,0.086-0.372,0.199-0.521,0.341s-0.276,0.304-0.382,0.486s-0.191,0.371-0.258,0.566
			s-0.114,0.388-0.145,0.577c-0.03,0.19-0.046,0.364-0.046,0.521c0,0.251,0.03,0.46,0.092,0.629
			c0.061,0.168,0.146,0.301,0.255,0.399s0.239,0.169,0.392,0.21s0.318,0.062,0.497,0.062c0.254,0,0.501-0.033,0.741-0.1
			s0.442-0.144,0.607-0.233l-0.15,0.763c-0.072,0.039-0.158,0.077-0.258,0.112c-0.101,0.036-0.21,0.067-0.328,0.095
			c-0.118,0.026-0.241,0.048-0.368,0.064c-0.127,0.016-0.255,0.024-0.384,0.024c-0.258,0-0.503-0.036-0.736-0.107
			c-0.232-0.072-0.438-0.188-0.614-0.347c-0.178-0.159-0.318-0.363-0.422-0.612s-0.155-0.551-0.155-0.905
			c0-0.24,0.022-0.489,0.069-0.747s0.119-0.514,0.218-0.768s0.223-0.495,0.373-0.723s0.33-0.427,0.54-0.599
			c0.209-0.172,0.45-0.309,0.722-0.411c0.272-0.102,0.573-0.152,0.902-0.152c0.129,0,0.257,0.009,0.382,0.026
			s0.244,0.04,0.357,0.067c0.112,0.026,0.218,0.057,0.316,0.091s0.182,0.067,0.25,0.1L260.462,34.866z"/>
		<path fill="#FFFFFF" d="M260.875,39.109l1.059-5.103h0.832l-1.058,5.103H260.875z M262.16,32.82l0.188-0.919h0.875l-0.188,0.919
			H262.16z"/>
		<path fill="#FFFFFF" d="M266.419,38.271c-0.122,0.179-0.253,0.33-0.392,0.454c-0.141,0.123-0.281,0.224-0.425,0.301
			s-0.285,0.132-0.427,0.166s-0.277,0.052-0.406,0.052c-0.222,0-0.418-0.041-0.59-0.121c-0.172-0.081-0.317-0.196-0.436-0.347
			s-0.208-0.331-0.269-0.542c-0.061-0.212-0.091-0.446-0.091-0.704c0-0.29,0.024-0.581,0.074-0.873
			c0.051-0.292,0.125-0.573,0.224-0.846s0.221-0.525,0.368-0.76c0.146-0.234,0.314-0.439,0.504-0.615
			c0.19-0.176,0.401-0.313,0.635-0.413c0.232-0.101,0.486-0.15,0.762-0.15c0.272,0,0.513,0.056,0.721,0.169
			c0.207,0.112,0.366,0.271,0.478,0.476h0.021l0.247-0.511h0.677l-0.821,3.927c-0.025,0.136-0.038,0.237-0.038,0.306
			c0,0.086,0.024,0.148,0.072,0.188c0.049,0.039,0.134,0.059,0.255,0.059c0.101,0,0.219-0.011,0.355-0.032l-0.146,0.688
			c-0.15,0.032-0.317,0.048-0.499,0.048c-0.298,0-0.513-0.069-0.645-0.209c-0.133-0.14-0.195-0.376-0.188-0.709H266.419z
			 M267.021,35.15c-0.047-0.064-0.102-0.13-0.164-0.198s-0.135-0.13-0.218-0.186c-0.082-0.056-0.174-0.1-0.276-0.134
			c-0.102-0.034-0.218-0.051-0.347-0.051c-0.211,0-0.402,0.046-0.574,0.139c-0.172,0.094-0.324,0.216-0.457,0.368
			c-0.132,0.152-0.246,0.327-0.344,0.524c-0.096,0.196-0.176,0.399-0.238,0.609c-0.062,0.209-0.109,0.416-0.14,0.62
			s-0.046,0.391-0.046,0.559c0,0.226,0.021,0.412,0.062,0.559s0.098,0.263,0.169,0.347c0.072,0.084,0.154,0.143,0.248,0.177
			c0.093,0.034,0.189,0.052,0.289,0.052c0.176,0,0.354-0.046,0.535-0.138c0.181-0.091,0.35-0.224,0.508-0.397
			c0.157-0.174,0.299-0.387,0.424-0.639c0.125-0.253,0.222-0.54,0.29-0.862L267.021,35.15z"/>
		<path fill="#FFFFFF" d="M271.517,39.142c-0.086,0.025-0.21,0.048-0.37,0.069c-0.162,0.021-0.322,0.033-0.484,0.033
			c-0.451,0-0.78-0.091-0.988-0.271c-0.207-0.181-0.311-0.429-0.311-0.744c0-0.118,0.018-0.267,0.053-0.445l0.635-3.062h-0.988
			l0.15-0.714h0.988l0.289-1.396h0.838l-0.289,1.396h1.348l-0.145,0.714h-1.354l-0.597,2.857c-0.018,0.094-0.032,0.174-0.043,0.242
			s-0.017,0.135-0.017,0.199c0,0.186,0.05,0.315,0.148,0.389s0.266,0.11,0.502,0.11c0.107,0,0.235-0.01,0.384-0.029
			s0.28-0.044,0.396-0.073L271.517,39.142z"/>
		<path fill="#FFFFFF" d="M277.054,35.193c0,0.319-0.079,0.586-0.236,0.801s-0.386,0.389-0.685,0.521
			c-0.299,0.132-0.665,0.229-1.099,0.292s-0.928,0.102-1.482,0.116c-0.004,0.039-0.006,0.078-0.008,0.117
			c-0.002,0.04-0.003,0.083-0.003,0.129c0,0.466,0.116,0.807,0.35,1.021c0.232,0.215,0.581,0.322,1.047,0.322
			c0.122,0,0.248-0.009,0.379-0.024c0.131-0.017,0.26-0.04,0.389-0.07s0.254-0.065,0.374-0.104s0.228-0.082,0.325-0.129l-0.15,0.763
			c-0.184,0.082-0.398,0.152-0.647,0.21c-0.249,0.057-0.519,0.086-0.809,0.086c-0.365,0-0.68-0.051-0.942-0.15
			c-0.264-0.101-0.48-0.241-0.65-0.422s-0.295-0.396-0.376-0.645c-0.08-0.249-0.12-0.522-0.12-0.819c0-0.272,0.026-0.544,0.08-0.816
			s0.134-0.532,0.239-0.778c0.105-0.248,0.236-0.477,0.392-0.688c0.156-0.212,0.336-0.396,0.54-0.551
			c0.204-0.156,0.433-0.278,0.685-0.368c0.253-0.09,0.525-0.134,0.819-0.134c0.211,0,0.413,0.025,0.604,0.077
			s0.36,0.133,0.508,0.242c0.146,0.109,0.263,0.247,0.349,0.413C277.011,34.772,277.054,34.969,277.054,35.193z M273.707,36.177
			c0.395,0,0.747-0.02,1.059-0.06c0.312-0.039,0.574-0.099,0.789-0.18c0.215-0.08,0.38-0.185,0.494-0.312
			c0.115-0.127,0.172-0.282,0.172-0.464c0-0.076-0.016-0.148-0.048-0.218c-0.032-0.07-0.081-0.132-0.146-0.186
			s-0.144-0.097-0.238-0.129s-0.203-0.048-0.325-0.048c-0.204,0-0.398,0.037-0.583,0.112s-0.353,0.183-0.505,0.322
			s-0.285,0.308-0.399,0.505C273.862,35.719,273.772,35.937,273.707,36.177z"/>
		<path fill="#FFFFFF" d="M278.886,35.377c0,0.11,0.021,0.206,0.066,0.287c0.045,0.08,0.105,0.15,0.18,0.209
			c0.076,0.06,0.163,0.11,0.264,0.153s0.206,0.084,0.316,0.124c0.154,0.053,0.311,0.111,0.468,0.174s0.301,0.144,0.43,0.242
			s0.234,0.223,0.317,0.373c0.082,0.15,0.123,0.344,0.123,0.58c0,0.283-0.053,0.531-0.158,0.746s-0.253,0.396-0.44,0.54
			c-0.188,0.146-0.412,0.255-0.672,0.328s-0.543,0.11-0.851,0.11c-0.276,0-0.555-0.03-0.836-0.089
			c-0.281-0.06-0.502-0.138-0.663-0.233l0.155-0.699c0.19,0.083,0.397,0.155,0.621,0.218s0.465,0.095,0.723,0.095
			c0.279,0,0.504-0.033,0.674-0.1s0.303-0.147,0.397-0.242s0.157-0.194,0.188-0.298s0.046-0.193,0.046-0.269
			c0-0.14-0.032-0.256-0.097-0.35c-0.064-0.093-0.148-0.172-0.253-0.236c-0.104-0.064-0.222-0.12-0.354-0.169
			c-0.133-0.048-0.27-0.098-0.408-0.147c-0.133-0.05-0.264-0.106-0.393-0.169s-0.242-0.14-0.341-0.231
			c-0.099-0.091-0.179-0.204-0.239-0.338c-0.061-0.135-0.092-0.299-0.092-0.492c0-0.275,0.051-0.515,0.15-0.717
			c0.101-0.202,0.236-0.37,0.406-0.505c0.17-0.134,0.366-0.234,0.588-0.301s0.457-0.099,0.703-0.099c0.147,0,0.292,0.01,0.436,0.029
			s0.281,0.045,0.414,0.078c0.132,0.031,0.257,0.068,0.373,0.109s0.219,0.085,0.309,0.132l-0.145,0.688
			c-0.215-0.093-0.437-0.171-0.664-0.233s-0.453-0.094-0.68-0.094c-0.172,0-0.323,0.021-0.456,0.062s-0.243,0.097-0.333,0.166
			c-0.09,0.07-0.157,0.153-0.204,0.25S278.886,35.262,278.886,35.377z"/>
		<path fill="#FFFFFF" d="M282.462,37.938h0.93l-1.305,3.266h-0.812L282.462,37.938z"/>
		<path fill="#FFFFFF" d="M288.204,38.32h3.432l-0.16,0.789h-4.309l1.494-7.187h0.875L288.204,38.32z"/>
		<path fill="#FFFFFF" d="M293.666,38.32h3.432l-0.16,0.789h-4.309l1.494-7.187h0.875L293.666,38.32z"/>
		<path fill="#FFFFFF" d="M302.163,32.567c-0.325,0-0.63,0.05-0.912,0.15c-0.283,0.101-0.54,0.239-0.771,0.416
			c-0.23,0.178-0.437,0.387-0.617,0.629c-0.181,0.241-0.332,0.505-0.454,0.789c-0.122,0.285-0.215,0.585-0.279,0.899
			c-0.064,0.315-0.097,0.633-0.097,0.951c0,0.426,0.062,0.773,0.188,1.042c0.126,0.269,0.289,0.478,0.489,0.628
			s0.428,0.254,0.683,0.31c0.254,0.056,0.51,0.083,0.768,0.083c0.29,0,0.569-0.027,0.838-0.08c0.269-0.055,0.512-0.117,0.73-0.188
			l-0.166,0.8c-0.227,0.083-0.474,0.145-0.744,0.186s-0.54,0.062-0.809,0.062c-0.404,0-0.783-0.055-1.136-0.162
			s-0.659-0.273-0.919-0.499s-0.464-0.514-0.612-0.864c-0.148-0.352-0.223-0.771-0.223-1.258c0-0.357,0.037-0.722,0.11-1.093
			c0.073-0.37,0.186-0.729,0.336-1.074s0.338-0.67,0.563-0.975s0.49-0.57,0.795-0.798s0.649-0.406,1.034-0.537
			s0.809-0.195,1.27-0.195c0.305,0,0.588,0.025,0.85,0.077c0.261,0.052,0.486,0.114,0.676,0.186l-0.16,0.778
			c-0.201-0.071-0.414-0.133-0.64-0.185S302.464,32.567,302.163,32.567z"/>
		<path fill="#FFFFFF" d="M304.022,39.109l0.215-1.047h1.026l-0.215,1.047H304.022z"/>
	</g>
	<g>
		<g>
			<g>
				<path fill="#FFFFFF" d="M43.287,1.532V43.29H1.53V1.532H43.287 M44.493,0.327h-1.205H1.53H0.324v1.205V43.29v1.205H1.53h41.758
					h1.205V43.29V1.532V0.327L44.493,0.327z"/>
			</g>
			<g>
				<path fill="#FFFFFF" d="M2.524,2.526v39.771h39.77V2.526H2.524z M20.375,17.565c4.781,0.276,11.794,0.329,15.083-2.56
					c1.605-1.41,1.789-3.249,1.85-5.258c0.022-0.738,0.249-2.514,0.53-3.27c-0.704,0.212-2.519,0.433-3.251,0.461
					c-2.001,0.08-3.931,0.174-5.453,1.695c-0.812,0.814-1.407,2.52-1.595,4.464c-0.097,0.701-0.054,1.668-0.062,2.107
					c0.975-0.08,1.964-0.528,2.873-1.134c1.106-0.738,2.241-1.846,3.77-4.666l0.344,0.21c-1.135,2.874-2.224,4.472-3.691,5.563
					c-1.135,0.844-2.276,1.186-3.322,1.352c-1.291,0.144-2.504,0.045-2.504,0.045V15.31c0-3.233,0.896-6.058,2.397-7.56
					c2.224-2.224,4.731-2.314,6.941-2.409c2.823-0.12,5.22-0.544,5.22-0.544s-0.402,1.97-0.511,5.227
					c-0.076,2.238-0.143,4.773-2.417,6.975c-2.575,2.495-8.793,2.925-12.767,2.925c-1.74,0-3.05-0.082-3.435-0.11V17.565z
					 M9.951,5.626c2.237,0.075,4.772,0.145,6.975,2.417c2.495,2.575,2.924,8.791,2.924,12.767c0,1.739-0.081,3.05-0.109,3.435h-2.25
					c0.277-4.782,0.33-11.795-2.559-15.083c-1.41-1.606-3.249-1.79-5.259-1.851C8.936,7.29,7.16,7.064,6.406,6.782
					c0.211,0.703,0.432,2.52,0.46,3.25c0.079,2.002,0.174,3.932,1.696,5.455c0.812,0.812,2.518,1.406,4.462,1.594
					c0.701,0.098,1.669,0.054,2.108,0.062c-0.08-0.977-0.529-1.965-1.134-2.873c-0.738-1.107-1.847-2.242-4.666-3.771l0.21-0.343
					c2.874,1.133,4.471,2.223,5.562,3.69c0.844,1.133,1.187,2.276,1.353,3.321c0.144,1.293,0.045,2.505,0.045,2.505h-1.265
					c-3.233,0-6.059-0.897-7.56-2.398c-2.223-2.224-2.314-4.729-2.408-6.94c-0.12-2.823-0.545-5.22-0.545-5.22
					S6.696,5.517,9.951,5.626z M24.365,27.259c-4.782-0.277-11.795-0.329-15.083,2.559c-1.605,1.409-1.789,3.249-1.85,5.26
					c-0.023,0.736-0.249,2.512-0.53,3.267c0.703-0.211,2.519-0.431,3.25-0.46c2.001-0.079,3.932-0.174,5.454-1.696
					c0.813-0.812,1.406-2.517,1.595-4.461c0.097-0.703,0.053-1.669,0.062-2.108c-0.976,0.078-1.965,0.527-2.873,1.133
					c-1.107,0.738-2.241,1.845-3.771,4.667l-0.343-0.212c1.134-2.874,2.224-4.471,3.691-5.562c1.134-0.844,2.275-1.188,3.321-1.353
					c1.292-0.144,2.505-0.045,2.505-0.045v1.265c0,3.233-0.896,6.06-2.398,7.561c-2.223,2.222-4.729,2.315-6.941,2.408
					c-2.823,0.119-5.219,0.545-5.219,0.545s0.401-1.972,0.511-5.229c0.074-2.236,0.143-4.772,2.417-6.973
					c2.575-2.496,8.792-2.924,12.766-2.924c1.739,0,3.05,0.08,3.436,0.109V27.259z M34.865,39.149
					c-2.237-0.075-4.773-0.145-6.974-2.418c-2.495-2.575-2.925-8.793-2.925-12.766c0-1.739,0.082-3.05,0.109-3.435h2.25
					c-0.276,4.781-0.33,11.794,2.559,15.083c1.41,1.604,3.249,1.789,5.259,1.85c0.738,0.022,2.513,0.247,3.268,0.529
					c-0.211-0.702-0.432-2.519-0.461-3.25c-0.079-2.001-0.173-3.931-1.695-5.454c-0.813-0.813-2.519-1.407-4.463-1.594
					c-0.701-0.099-1.668-0.055-2.107-0.062c0.079,0.976,0.528,1.965,1.134,2.873c0.737,1.107,1.846,2.24,4.666,3.771l-0.211,0.343
					c-2.873-1.134-4.47-2.224-5.562-3.691c-0.844-1.134-1.186-2.275-1.352-3.321c-0.144-1.292-0.044-2.506-0.044-2.506h1.265
					c3.232,0,6.059,0.898,7.56,2.398c2.222,2.224,2.312,4.732,2.408,6.942c0.12,2.823,0.544,5.219,0.544,5.219
					S38.121,39.258,34.865,39.149z"/>
			</g>
		</g>
		<g>
			<g>
				<g>
					<path fill="#FFFFFF" d="M150.806,17.686c-0.749,0.388-2.322,0.774-4.307,0.774c-4.595,0-8.031-2.904-8.031-8.274
						c0-5.13,3.459-8.565,8.517-8.565c2.007,0,3.314,0.436,3.87,0.727l-0.532,1.717c-0.773-0.387-1.911-0.678-3.267-0.678
						c-3.823,0-6.363,2.444-6.363,6.727c0,4.017,2.3,6.557,6.242,6.557c1.308,0,2.614-0.266,3.46-0.678L150.806,17.686z"/>
					<path fill="#FFFFFF" d="M166.145,9.87c0,5.589-3.412,8.59-7.573,8.59c-4.331,0-7.332-3.363-7.332-8.299
						c0-5.178,3.194-8.564,7.55-8.564C163.265,1.597,166.145,5.008,166.145,9.87z M153.467,10.112c0,3.508,1.886,6.63,5.225,6.63
						c3.34,0,5.226-3.073,5.226-6.774c0-3.267-1.692-6.654-5.201-6.654C155.209,3.314,153.467,6.556,153.467,10.112z"/>
					<path fill="#FFFFFF" d="M168.572,18.193V1.887h2.322l5.201,8.25c1.187,1.911,2.153,3.63,2.904,5.298l0.072-0.023
						c-0.193-2.178-0.243-4.162-0.243-6.702V1.887h1.985v16.307h-2.129l-5.177-8.274c-1.138-1.814-2.227-3.678-3.025-5.443
						l-0.072,0.023c0.121,2.057,0.146,4.017,0.146,6.727v6.968H168.572z"/>
					<path fill="#FFFFFF" d="M183.647,15.629c0.944,0.604,2.3,1.064,3.751,1.064c2.153,0,3.412-1.138,3.412-2.782
						c0-1.5-0.872-2.394-3.072-3.218c-2.663-0.968-4.309-2.371-4.309-4.645c0-2.541,2.106-4.428,5.275-4.428
						c1.646,0,2.879,0.387,3.58,0.799l-0.581,1.718c-0.507-0.314-1.597-0.774-3.073-0.774c-2.226,0-3.072,1.33-3.072,2.443
						c0,1.525,0.993,2.275,3.243,3.145c2.758,1.064,4.138,2.396,4.138,4.79c0,2.517-1.841,4.719-5.687,4.719
						c-1.573,0-3.291-0.484-4.161-1.064L183.647,15.629z"/>
					<path fill="#FFFFFF" d="M197.047,1.887v9.677c0,3.63,1.622,5.179,3.798,5.179c2.396,0,3.97-1.598,3.97-5.179V1.887h2.129v9.532
						c0,5.008-2.639,7.041-6.17,7.041c-3.34,0-5.855-1.887-5.855-6.969V1.887H197.047z"/>
					<path fill="#FFFFFF" d="M210.143,1.887h2.128v14.54h6.969v1.767h-9.097V1.887z"/>
					<path fill="#FFFFFF" d="M222.463,3.677h-4.959v-1.79h12.072v1.79h-4.983v14.517h-2.13V3.677z"/>
					<path fill="#FFFFFF" d="M233.223,1.887v16.307h-2.129V1.887H233.223z"/>
					<path fill="#FFFFFF" d="M236.471,18.193V1.887h2.32l5.203,8.25c1.185,1.911,2.151,3.63,2.904,5.298l0.071-0.023
						c-0.193-2.178-0.242-4.162-0.242-6.702V1.887h1.984v16.307h-2.13l-5.176-8.274c-1.139-1.814-2.227-3.678-3.024-5.443
						l-0.074,0.023c0.121,2.057,0.145,4.017,0.145,6.727v6.968H236.471z"/>
					<path fill="#FFFFFF" d="M264.484,17.468c-0.944,0.363-2.832,0.895-5.033,0.895c-2.468,0-4.5-0.629-6.098-2.152
						c-1.402-1.355-2.272-3.533-2.272-6.073c0-4.862,3.362-8.419,8.831-8.419c1.886,0,3.386,0.41,4.087,0.749l-0.531,1.719
						c-0.871-0.411-1.96-0.702-3.605-0.702c-3.968,0-6.557,2.468-6.557,6.557c0,4.137,2.466,6.58,6.291,6.58
						c1.378,0,2.322-0.193,2.806-0.435v-4.861h-3.291V9.629h5.372V17.468z"/>
					<path fill="#FFFFFF" d="M285.24,17.468c-0.943,0.363-2.832,0.895-5.034,0.895c-2.466,0-4.5-0.629-6.096-2.152
						c-1.403-1.355-2.273-3.533-2.273-6.073c0-4.862,3.363-8.419,8.83-8.419c1.888,0,3.387,0.41,4.088,0.749l-0.532,1.719
						c-0.87-0.411-1.958-0.702-3.603-0.702c-3.969,0-6.559,2.468-6.559,6.557c0,4.137,2.468,6.58,6.293,6.58
						c1.378,0,2.32-0.193,2.806-0.435v-4.861h-3.291V9.629h5.372V17.468z"/>
					<path fill="#FFFFFF" d="M288.112,2.105c1.065-0.193,2.612-0.339,4.04-0.339c2.25,0,3.727,0.436,4.718,1.331
						c0.8,0.726,1.283,1.838,1.283,3.121c0,2.129-1.355,3.557-3.048,4.137c0,0-0.596,0.216-0.956,0.352
						c0.066,0.158,4.584,7.487,4.584,7.487h-2.178c0,0-3.138-5.124-4.354-7.065h-1.984v7.065h-2.104V2.105z M290.216,9.532h2.153
						c2.25,0,3.678-1.234,3.678-3.098c0-2.104-1.524-3.023-3.75-3.023c-1.018,0-1.717,0.072-2.081,0.17V9.532z"/>
					<path fill="#FFFFFF" d="M314.698,9.87c0,5.589-3.41,8.59-7.573,8.59c-4.329,0-7.33-3.363-7.33-8.299
						c0-5.178,3.192-8.564,7.548-8.564C311.818,1.597,314.698,5.008,314.698,9.87z M302.02,10.112c0,3.508,1.888,6.63,5.226,6.63
						c3.339,0,5.227-3.073,5.227-6.774c0-3.267-1.694-6.654-5.201-6.654C303.762,3.314,302.02,6.556,302.02,10.112z"/>
					<path fill="#FFFFFF" d="M319.143,1.887v9.677c0,3.63,1.62,5.179,3.799,5.179c2.396,0,3.967-1.598,3.967-5.179V1.887h2.129
						v9.532c0,5.008-2.637,7.041-6.168,7.041c-3.338,0-5.855-1.887-5.855-6.969V1.887H319.143z"/>
					<path fill="#FFFFFF" d="M332.25,2.08c1.015-0.169,2.347-0.314,4.04-0.314c2.079,0,3.603,0.483,4.572,1.355
						c0.871,0.775,1.429,1.96,1.429,3.412c0,1.475-0.436,2.637-1.259,3.483c-1.139,1.186-2.929,1.79-4.985,1.79
						c-0.629,0-1.209-0.023-1.694-0.145v6.532h-2.102V2.08z M334.353,9.943c0.461,0.12,1.041,0.169,1.744,0.169
						c2.54,0,4.089-1.258,4.089-3.46c0-2.177-1.549-3.217-3.849-3.217c-0.919,0-1.618,0.071-1.984,0.169V9.943z"/>
				</g>
				<line fill="#FFFFFF" stroke="#F68A33" stroke-width="1.26" x1="58.638" y1="23.065" x2="133.868" y2="23.065"/>
				<line fill="#FFFFFF" stroke="#FFFFFF" stroke-width="1.26" x1="136.851" y1="23.065" x2="347.429" y2="23.065"/>
				<g>
					<path fill="#F68A33" d="M59.132,2.128c0.92-0.217,2.395-0.362,3.847-0.362c2.105,0,3.459,0.362,4.451,1.186
						c0.847,0.629,1.379,1.596,1.379,2.878c0,1.597-1.065,2.976-2.758,3.581v0.072c1.549,0.363,3.362,1.644,3.362,4.064
						c0,1.403-0.556,2.492-1.402,3.266c-1.112,1.041-2.951,1.525-5.612,1.525c-1.452,0-2.565-0.098-3.267-0.193V2.128z
						 M61.237,8.806h1.911c2.202,0,3.508-1.186,3.508-2.758c0-1.887-1.427-2.662-3.556-2.662c-0.969,0-1.524,0.074-1.863,0.146
						V8.806z M61.237,16.597c0.436,0.072,1.016,0.097,1.767,0.097c2.177,0,4.186-0.799,4.186-3.169c0-2.201-1.912-3.146-4.21-3.146
						h-1.742V16.597z"/>
					<path fill="#F68A33" d="M71.865,1.887h2.128v14.54h6.969v1.767h-9.097V1.887z"/>
					<path fill="#F68A33" d="M96.163,9.87c0,5.589-3.411,8.59-7.573,8.59c-4.33,0-7.33-3.363-7.33-8.299
						c0-5.178,3.193-8.564,7.548-8.564C93.284,1.597,96.163,5.008,96.163,9.87z M83.485,10.112c0,3.508,1.889,6.63,5.227,6.63
						c3.339,0,5.226-3.073,5.226-6.774c0-3.267-1.692-6.654-5.201-6.654C85.227,3.314,83.485,6.556,83.485,10.112z"/>
					<path fill="#F68A33" d="M112.587,9.87c0,5.589-3.412,8.59-7.572,8.59c-4.331,0-7.332-3.363-7.332-8.299
						c0-5.178,3.194-8.564,7.55-8.564C109.708,1.597,112.587,5.008,112.587,9.87z M99.91,10.112c0,3.508,1.887,6.63,5.227,6.63
						c3.338,0,5.225-3.073,5.225-6.774c0-3.267-1.693-6.654-5.202-6.654C101.651,3.314,99.91,6.556,99.91,10.112z"/>
					<path fill="#F68A33" d="M128.285,11.032c-0.121-2.274,0-5.033,0-7.041l0,0c-0.58,1.888-1.233,3.944-2.057,6.194l-2.879,7.911
						h-1.597l-2.661-7.766c-0.773-2.324-1.402-4.404-1.863-6.34l0,0c-0.049,2.033,0.147,4.742,0,7.21v6.992h-1.67V1.887h2.687
						l2.782,7.888c0.677,2.008,1.209,3.798,1.646,5.491h0.047c0.437-1.646,1.017-3.434,1.742-5.491l2.904-7.888h2.686v16.307h-1.767
						V11.032z"/>
				</g>
			</g>
		</g>
	</g>
</g>
</svg>
