<?xml version="1.0" encoding="utf-8"?>
<!-- Generator: Adobe Illustrator 17.0.0, SVG Export Plug-In . SVG Version: 6.00 Build 0)  -->
<!DOCTYPE svg PUBLIC "-//W3C//DTD SVG 1.1//EN" "http://www.w3.org/Graphics/SVG/1.1/DTD/svg11.dtd">
<svg version="1.1" id="Layer_1" xmlns="http://www.w3.org/2000/svg" xmlns:xlink="http://www.w3.org/1999/xlink" x="0px" y="0px"
	 width="252px" height="90px" viewBox="0 0 252 90" enable-background="new 0 0 252 90" xml:space="preserve">
<path fill-rule="evenodd" clip-rule="evenodd" d="M67.627,40.443c0,2.504-1.552,4.365-4.655,5.586
	c-2.41,0.951-5.349,1.432-8.819,1.432H39.928c-3.73,0-6.862-0.434-9.407-1.291c-3.498-1.176-5.252-3.053-5.252-5.635v-13.81
	c0-2.48,1.783-4.312,5.359-5.502c2.823-0.889,5.936-1.338,9.348-1.338h5.648c1.523,0,2.284,0.68,2.284,2.041
	c0,1.367-0.761,2.055-2.284,2.055h-1.725c-0.164,0-0.26-0.006-0.28-0.023c-0.433-0.014-0.819-0.022-1.156-0.029
	c-0.338-0.008-0.617-0.016-0.819-0.016c-6.737,0-10.111,0.934-10.111,2.803v13.797c0,1.871,2.824,2.807,8.472,2.807h14.158
	c1.349,0,2.795-0.201,4.318-0.611c1.918-0.516,2.881-1.205,2.881-2.086v-2.934h-8.803c-1.161,0-2.112-0.994-2.112-2.209
	c0-1.217,0.951-2.211,2.112-2.211h10.585c0.535-0.055,1.302-0.049,2.286-0.049c1.465,0,2.197,0.588,2.197,1.77V40.443"/>
<path fill-rule="evenodd" clip-rule="evenodd" d="M104.59,40.582v-8.357c0-1.717-2.429-2.6-7.344-2.6h-9.715
	c-1.794,0-3.412,0.185-4.858,0.557c-2.024,0.559-3.007,1.348-3.007,2.414v7.986c0,1.021,1.041,1.811,3.065,2.275
	c1.388,0.324,3.007,0.465,4.858,0.465h9.657c1.561,0,3.064-0.186,4.452-0.512C103.607,42.301,104.59,41.557,104.59,40.582
	 M110.604,40.582c0,2.508-1.504,4.318-4.569,5.434c-2.139,0.883-5.031,1.346-8.616,1.346h-9.888c-3.296,0-6.246-0.463-8.906-1.346
	c-3.296-1.162-4.915-2.973-4.915-5.434v-7.986c0-2.414,1.619-4.269,4.858-5.523c2.428-0.977,5.377-1.44,8.905-1.44h9.946
	c8.79,0,13.185,2.275,13.185,6.918V40.582z"/>
<path fill-rule="evenodd" clip-rule="evenodd" d="M182.686,27.861c0,1.207-0.926,1.811-2.66,1.811c-0.233,0-0.579,0-1.041-0.047
	h-1.1c-4.568,0-6.824,0.883-6.824,2.74v13.186c0,0.883-0.461,1.439-1.271,1.672c-0.348,0.094-1.215,0.139-2.602,0.139
	c-1.389,0-2.082-0.604-2.082-1.811V32.365c0-2.879,1.793-4.783,5.436-5.803c2.197-0.652,5.493-0.93,9.889-0.93
	C181.935,25.633,182.686,26.375,182.686,27.861"/>
<path fill-rule="evenodd" clip-rule="evenodd" d="M217.681,40.582v-8.357c0-1.717-2.428-2.6-7.342-2.6h-9.715
	c-1.794,0-3.412,0.185-4.859,0.557c-2.023,0.559-3.006,1.348-3.006,2.414v7.986c0,1.021,1.041,1.811,3.064,2.275
	c1.389,0.324,3.007,0.465,4.855,0.465h9.66c1.56,0,3.063-0.186,4.451-0.512C216.698,42.301,217.681,41.557,217.681,40.582
	 M223.696,40.582c0,2.508-1.504,4.318-4.568,5.434c-2.14,0.883-5.033,1.346-8.617,1.346h-9.887c-3.298,0-6.246-0.463-8.906-1.346
	c-3.297-1.162-4.916-2.973-4.916-5.434v-7.986c0-2.414,1.619-4.269,4.857-5.523c2.43-0.977,5.378-1.44,8.906-1.44h9.945
	c8.789,0,13.186,2.275,13.186,6.918V40.582z"/>
<path fill-rule="evenodd" clip-rule="evenodd" d="M153.457,29.887v-3.762c0-1.578-2.724-2.414-8.171-2.414h-22.195v9.566h22.195
	C150.733,33.277,153.457,32.115,153.457,29.887 M159.716,30.072c0,2.74-1.738,4.736-5.158,5.992
	c-2.666,0.881-5.854,1.299-9.619,1.299h-21.848v8.082c0,0.881-0.406,1.438-1.333,1.67c-0.232,0.094-1.159,0.141-2.724,0.141
	c-1.449,0-2.202-0.603-2.202-1.81V21.389c0-1.162,0.753-1.766,2.202-1.766h26.194c3.535,0,6.549,0.418,9.04,1.162
	c3.652,1.113,5.448,2.785,5.448,4.969V30.072z"/>
<path fill-rule="evenodd" clip-rule="evenodd" d="M52.04,66.641c-0.343-0.607-1.095-0.811-2.259-0.604
	c-0.645,0.281-0.893,0.709-0.742,1.289c0.168,0.73,0.949,0.941,2.358,0.6C51.908,67.721,52.122,67.297,52.04,66.641 M47.563,64.104
	h1.846c-0.02-0.635,0.433-0.957,1.345-0.953c0.754,0.016,1.175,0.258,1.262,0.715c0,0.588,0.012,1.141,0.024,1.691
	c-0.405-0.473-1.159-0.746-2.262-0.822c-1.745,0.164-2.587,0.969-2.523,2.42c0.063,1.268,0.968,1.941,2.713,2.014
	c0.917,0.041,1.615-0.23,2.106-0.846c0.013,0.267,0.013,0.508,0.013,0.75h1.701c0.013-1.84,0.013-3.666,0.013-5.494
	c-0.428-0.953-1.147-1.461-2.143-1.523c-0.877-0.025-1.741-0.025-2.606-0.025C47.973,62.332,47.489,63.02,47.563,64.104
	 M42.041,64.809c0.09-1.078-0.384-1.594-1.44-1.565c-1.174-0.008-1.702,0.521-1.585,1.586
	C40.024,64.789,41.031,64.789,42.041,64.809 M39.633,61.984h1.75c1.301,0,2.366,1.049,2.366,2.33v1.465h-4.733
	c-0.199,1.441,0.172,2.141,1.091,2.1c0.336-0.02,0.692-0.02,1.05-0.02c0.61,0.055,0.898-0.275,0.885-1.072h1.708v0.041
	c0,1.281-1.065,2.33-2.366,2.33h-1.75c-1.302,0-2.367-1.049-2.367-2.33v-2.514C37.266,63.033,38.331,61.984,39.633,61.984
	 M30.68,64.686v2.76c1.064-0.021,2.064-0.021,3.063-0.021c0.868,0.016,1.287-0.426,1.279-1.301c-0.044-0.793-0.411-1.25-1.103-1.393
	C32.833,64.736,31.79,64.723,30.68,64.686 M30.68,60.729v2.535c0.994-0.021,1.929-0.021,2.861-0.021
	c0.81,0.014,1.2-0.393,1.193-1.193c-0.041-0.729-0.384-1.148-1.028-1.279C32.689,60.777,31.716,60.764,30.68,60.729 M28.766,59.059
	v9.934h5.764c1.564,0.104,2.358-0.775,2.387-2.615c0.069-1.285-0.46-2.125-1.606-2.496c0.9-0.172,1.38-0.928,1.421-2.287
	c-0.097-1.613-0.988-2.467-2.676-2.576C32.271,59.025,30.488,59.031,28.766,59.059"/>
<path fill-rule="evenodd" clip-rule="evenodd" d="M92.862,63.455c-0.266,1.113-0.06,2.418,0.202,2.904
	c0.262,0.484,1.118,0.916,1.768,0.916c0.667,0,1.617-0.314,2.096-0.789c0.481-0.475,1.145-1.611,1.439-2.844
	c0.25-1.037,0.063-2.024-0.204-2.504c-0.268-0.477-1.066-1.117-1.724-1.117c-0.626,0-1.637,0.287-2.134,0.773
	C93.81,61.279,93.132,62.334,92.862,63.455 M90.005,63.551c0.432-1.799,1.527-3.287,2.682-4.287c1.157-1.002,2.64-1.203,4.274-1.203
	c1.675,0,2.901,0.686,3.572,1.672c0.671,0.982,1.039,2.326,0.613,4.098c-0.309,1.289-0.833,2.311-1.426,3.133
	c-0.593,0.824-1.408,1.342-2.266,1.801c-0.86,0.459-1.881,0.564-2.999,0.564c-1.135,0-2.028-0.197-2.678-0.594
	c-0.648-0.396-1.399-1.021-1.657-1.879C89.863,66,89.696,64.84,90.005,63.551"/>
<path fill-rule="evenodd" clip-rule="evenodd" d="M78.577,69l2.379-10.77l4.939,0.018c0.107,0,3.638-0.18,3.465,2.811
	c-0.124,2.176-1.08,2.42-2.998,3.43c0.965,1.605,1.298,2.469,2.574,4.512h-3.216c-0.357-1.02-1.89-3.906-1.898-3.906l-1.665-0.017
	l-0.845,3.939L78.577,69 M82.692,63.135h1.894c1.757,0,2.593-2.756,0.768-2.785l-1.982-0.037L82.692,63.135z"/>
<polygon fill-rule="evenodd" clip-rule="evenodd" points="71.632,58.266 79.386,58.301 78.98,60.283 73.973,60.318 73.519,62.229 
	78.183,62.246 77.748,64.299 72.978,64.299 72.422,67.031 77.369,66.945 77.07,69.033 69.217,68.945 "/>
<polygon fill-rule="evenodd" clip-rule="evenodd" points="60.004,58.23 62.832,58.248 61.871,62.174 65.941,62.279 66.814,58.266 
	69.622,58.301 67.171,69 64.382,69.016 65.451,64.314 61.381,64.279 60.258,69.016 57.482,69 "/>
<polygon fill-rule="evenodd" clip-rule="evenodd" points="101.232,68.984 103.803,68.984 104.512,66.182 101.941,66.182 "/>
<path fill-rule="evenodd" clip-rule="evenodd" d="M226.358,47.162h0.688c0.146,0,0.258-0.014,0.342-0.045
	c0.082-0.029,0.145-0.078,0.188-0.143c0.043-0.066,0.062-0.139,0.062-0.217c0-0.113-0.039-0.207-0.123-0.279
	c-0.082-0.074-0.213-0.111-0.393-0.111h-0.764V47.162 M226.039,48.506v-2.402h1.071c0.215,0,0.378,0.02,0.488,0.064
	c0.113,0.043,0.201,0.119,0.271,0.229c0.067,0.107,0.099,0.229,0.099,0.361c0,0.17-0.054,0.314-0.166,0.432
	c-0.109,0.117-0.282,0.189-0.514,0.223c0.086,0.039,0.15,0.08,0.192,0.119c0.095,0.086,0.183,0.193,0.267,0.32l0.42,0.654h-0.402
	l-0.318-0.502c-0.095-0.143-0.172-0.254-0.23-0.328c-0.061-0.08-0.117-0.133-0.164-0.164c-0.047-0.029-0.094-0.051-0.145-0.062
	c-0.036-0.006-0.096-0.01-0.179-0.01h-0.37v1.066H226.039z M226.903,45.283c1.193,0,2.165,0.971,2.165,2.166
	s-0.972,2.164-2.165,2.164c-1.195,0-2.165-0.969-2.165-2.164S225.708,45.283,226.903,45.283 M226.903,44.908
	c1.402,0,2.541,1.137,2.541,2.541c0,1.402-1.139,2.541-2.541,2.541c-1.402,0-2.542-1.139-2.542-2.541
	C224.361,46.045,225.501,44.908,226.903,44.908"/>
<rect x="111.544" y="54.148" fill-rule="evenodd" clip-rule="evenodd" fill="#00AEEF" width="23.841" height="18.23"/>
<rect x="140.301" y="54.148" fill-rule="evenodd" clip-rule="evenodd" fill="#00AEEF" width="23.841" height="18.23"/>
<rect x="169.247" y="54.147" fill="#005DAC" width="23.84" height="18.229"/>
<rect x="198.802" y="54.148" fill-rule="evenodd" clip-rule="evenodd" fill="#FFFFFF" width="23.842" height="18.23"/>
</svg>
