<?xml version="1.0" encoding="utf-8"?>
<!-- Generator: Adobe Illustrator 17.1.0, SVG Export Plug-In . SVG Version: 6.00 Build 0)  -->
<!DOCTYPE svg PUBLIC "-//W3C//DTD SVG 1.1//EN" "http://www.w3.org/Graphics/SVG/1.1/DTD/svg11.dtd">
<svg version="1.1" id="Layer_1" xmlns="http://www.w3.org/2000/svg" xmlns:xlink="http://www.w3.org/1999/xlink" x="0px" y="0px"
	 viewBox="0 0 200 62" enable-background="new 0 0 200 62" xml:space="preserve">
<g>
	<g>
		<g>
			<path fill="#F16232" d="M2,24.4c0.9,0,1.3,0.4,1.5,1.3c1.4,5.7,2.8,10.6,4.6,16.1l0,0c1.4-5.5,3-10.6,4.3-16.1
				c0.2-0.9,0.7-1.3,1.6-1.3h0.6c0.9,0,1.4,0.4,1.6,1.3c1.3,5.5,3,10.6,4.4,16.1l0,0c1.7-5.5,3.1-10.4,4.5-16.1
				c0.2-0.9,0.6-1.3,1.5-1.3h0.7c0.7,0,1.4,0.3,1.4,0.9c0,0.2,0,0.4-0.1,0.6c-1.5,5.7-2.9,11.6-4.9,16.9c-0.5,1.3-1.2,2-2.9,2h-0.4
				c-1.6,0-2.2-0.7-2.6-2c-1.3-4.5-2.5-8.6-3.5-14.3h-0.2c-1,5.7-2,9.8-3.3,14.3c-0.4,1.4-1,2-2.6,2H7.9c-1.7,0-2.4-0.7-2.9-2
				c-2-5.3-3.5-11.2-5-16.9C0,25.7,0,25.4,0,25.3c0-0.6,0.6-0.9,1.4-0.9H2z"/>
			<path fill="#F16232" d="M49.1,32.2v8.2c0,1.9,1,2.7,1.7,2.9c-0.4,1-1.3,1.6-2.3,1.6c-1.7,0-2.7-1.4-2.7-3.2
				c-1.1,1.5-3.2,3.5-6.8,3.5c-4.5,0-7.2-2.5-7.2-6.3c0-4,3.2-6.7,8.4-6.7c3,0,4.4,0.7,5.4,1.1v-1.8c0-3.5-1.9-4.7-5.2-4.7
				c-2.5,0-4.6,1.2-5.7,2.8C33.8,29.5,33,29,33,28c0-2.1,3.3-4,7.3-4C45.9,24,49.1,26.7,49.1,32.2z M35.2,38.7
				c0,2.2,1.7,3.7,4.4,3.7c3.5,0,6-2.6,6-5.7v-0.8c-1.4-0.6-3.3-1.2-5.4-1.2C37.1,34.8,35.2,36.3,35.2,38.7z"/>
			<path fill="#F16232" d="M72.8,25c0,1.7-1.8,2.6-3.1,3c0.5,0.6,0.9,2.2,0.9,3.7c0,4.9-3.7,7.2-8.1,7.2c-0.6,0-1.2-0.1-1.9-0.1
				c-1.4,0-2.4,0.8-2.4,1.7c0,1.1,1.2,1.6,2.7,1.6h3.1c5.8,0,8.9,1.6,8.9,5.4c0,3.9-4.2,6.4-9.9,6.6h-1c-4.7,0-8.5-2.2-8.5-4.7
				c0-1.2,0.7-2,1.6-2.1c0.3,0.7,0.8,1.3,1.5,1.9c1.4,1.1,3.5,1.9,5.9,1.9h0.3c4.3,0,6.7-1.5,6.7-3.3c0-2-2.1-2.7-6.4-2.7
				c-5.5,0-8.2-0.7-8.2-3.5c0-1.7,1-2.7,3-3.6c-2.2-1.2-3.6-3.1-3.6-6.5c0-4.9,3.9-7.4,8.4-7.4c2.7,0,4.8,1.5,5.6,2.4
				c1.2-0.8,1.6-2.4,1.6-3.8C71.4,22.6,72.8,23.5,72.8,25z M57.7,31.5c0,3.5,2.4,4.8,4.9,4.8c2.5,0,4.9-1.3,4.9-4.8
				s-2.4-4.8-4.9-4.8C60,26.7,57.7,28,57.7,31.5z"/>
		</g>
		<g>
			<path fill="#F16232" d="M129.1,24.4c0.9,0,1.3,0.4,1.5,1.3c1.4,5.7,2.8,10.6,4.6,16.1l0,0c1.4-5.5,3-10.6,4.3-16.1
				c0.2-0.9,0.7-1.3,1.6-1.3h0.6c0.9,0,1.4,0.4,1.6,1.3c1.3,5.5,3,10.6,4.4,16.1l0,0c1.7-5.5,3.1-10.4,4.5-16.1
				c0.2-0.9,0.6-1.3,1.5-1.3h0.7c0.7,0,1.4,0.3,1.4,0.9c0,0.2,0,0.4-0.1,0.6c-1.5,5.7-2.9,11.6-4.9,16.9c-0.5,1.3-1.2,2-2.9,2h-0.4
				c-1.6,0-2.2-0.7-2.6-2c-1.3-4.5-2.5-8.6-3.5-14.3h-0.2c-1,5.7-2,9.8-3.3,14.3c-0.4,1.4-1,2-2.6,2H135c-1.7,0-2.4-0.7-2.9-2
				c-2-5.3-3.5-11.2-5-16.9c0-0.2-0.1-0.4-0.1-0.6c0-0.6,0.6-0.9,1.4-0.9H129.1z"/>
			<path fill="#F16232" d="M176.2,32.2v8.2c0,1.9,1,2.7,1.7,2.9c-0.4,1-1.3,1.6-2.3,1.6c-1.7,0-2.7-1.4-2.7-3.2
				c-1.1,1.5-3.2,3.5-6.8,3.5c-4.5,0-7.2-2.5-7.2-6.3c0-4,3.2-6.7,8.4-6.7c3,0,4.4,0.7,5.4,1.1v-1.8c0-3.5-1.9-4.7-5.2-4.7
				c-2.5,0-4.6,1.2-5.7,2.8c-0.9-0.1-1.7-0.6-1.7-1.6c0-2.1,3.3-4,7.3-4C173,24,176.2,26.7,176.2,32.2z M162.3,38.7
				c0,2.2,1.7,3.7,4.4,3.7c3.5,0,6-2.6,6-5.7v-0.8c-1.4-0.6-3.3-1.2-5.4-1.2C164.2,34.8,162.3,36.3,162.3,38.7z"/>
			<path fill="#F16232" d="M199.9,25c0,1.7-1.8,2.6-3.1,3c0.5,0.6,0.9,2.2,0.9,3.7c0,4.9-3.7,7.2-8.1,7.2c-0.6,0-1.2-0.1-1.9-0.1
				c-1.4,0-2.4,0.8-2.4,1.7c0,1.1,1.2,1.6,2.7,1.6h3.1c5.8,0,8.9,1.6,8.9,5.4c0,3.9-4.2,6.4-9.9,6.6h-1c-4.7,0-8.5-2.2-8.5-4.7
				c0-1.2,0.7-2,1.6-2.1c0.3,0.7,0.8,1.3,1.5,1.9c1.4,1.1,3.5,1.9,5.9,1.9h0.3c4.3,0,6.7-1.5,6.7-3.3c0-2-2.1-2.7-6.4-2.7
				c-5.5,0-8.2-0.7-8.2-3.5c0-1.7,1-2.7,3-3.6c-2.2-1.2-3.6-3.1-3.6-6.5c0-4.9,3.9-7.4,8.4-7.4c2.7,0,4.8,1.5,5.6,2.4
				c1.2-0.8,1.6-2.4,1.6-3.8C198.5,22.6,199.9,23.5,199.9,25z M184.7,31.5c0,3.5,2.4,4.8,4.9,4.8c2.5,0,4.9-1.3,4.9-4.8
				s-2.4-4.8-4.9-4.8C187.1,26.7,184.7,28,184.7,31.5z"/>
		</g>
		<g>
			<path fill="#F16232" d="M95.8,52.7c-1.4-2-2-5.5-1.8-7.5c0-0.4,0.3-0.9,0.7-1.1c0.6-0.4,1.2-0.3,2.7,0.1c-0.6-2.6-0.7-5.4,0-7.5
				c0.2-0.8,1.1-1.2,1.9-1c0.8,0.2,1.2,1.1,1,1.9c-0.7,2.1-0.3,5.8,0.8,8.1c0.3,0.5,0.2,1.2-0.2,1.7c-0.7,0.8-1.4,0.6-3.4,0
				c-0.1,0-0.3-0.1-0.5-0.1c0.2,1.3,0.6,2.9,1.2,3.8c0.5,0.7,0.3,1.6-0.4,2.1c-0.3,0.2-0.5,0.3-0.8,0.3C96.5,53.4,96,53.2,95.8,52.7
				z"/>
			<path fill="#F16232" d="M97.1,60.4c-0.6-0.9-0.8-2.1-0.4-3.2c0.7-1.7,2.1-2.7,4.2-2.7h2.3c0,0,0.1,0,0.2,0
				c-0.6-1.8-0.7-4.9,0.9-7.1c1-1.3,2.9-2.8,6.5-2.2c0.8,0.1,1.4,0.9,1.2,1.7c-0.1,0.8-0.9,1.4-1.7,1.2c-1.7-0.3-2.9,0.1-3.6,1.1
				c-1.1,1.5-0.8,3.8-0.4,4.5c0.4,0.7,0.3,1.6-0.1,2.3c-0.6,0.9-1.8,1.6-2.9,1.6h-2.3c-1,0-1.2,0.4-1.4,0.8c-0.1,0.2,0,0.3,0.1,0.4
				c0.1,0.1,0.2,0.2,0.4,0.2h19.3c3.7,0,6.2-1.6,6.6-4.3c0.3-2.1-0.8-4.1-2.6-4.7c-0.8-0.2-1.2-1.1-1-1.9c0.2-0.8,1.1-1.2,1.9-1
				c3.2,1,5.2,4.4,4.6,8c-0.5,3.3-3.3,6.8-9.5,6.8H99.9C98.8,61.9,97.7,61.3,97.1,60.4z"/>
			<path fill="#F16232" d="M86.1,60.4c-0.6-0.9-0.8-2.1-0.4-3.2c0.7-1.7,2.1-2.7,4.2-2.7l0.2,0c0.6,0,0.8-0.1,0.8-0.1
				c0.2-0.4-0.3-2.3-0.6-3.6c-0.9-3.4-2.2-8.6-0.4-14.4c0.2-0.8,1.1-1.2,1.9-1c0.8,0.2,1.2,1.1,1,1.9c-1.6,4.9-0.4,9.5,0.4,12.7
				c0.7,2.6,1.2,4.7,0.1,6.2c-0.6,0.8-1.7,1.3-3.1,1.3h-0.2c-1,0-1.2,0.4-1.4,0.8c-0.1,0.2,0,0.3,0.1,0.4c0.1,0.1,0.2,0.2,0.4,0.2
				h3.8c0.8,0,1.5,0.7,1.5,1.5s-0.7,1.5-1.5,1.5h-3.8C87.8,61.9,86.7,61.3,86.1,60.4z"/>
			<path fill="#F16232" d="M86.7,27.3c0.4,2.8,2.3,6,5.1,6.3c2,0.2,4.9-0.9,7.1-7.3c0.3-0.8-0.1-1.6-0.9-1.9
				c-0.8-0.3-1.6,0.1-1.9,0.9c-1.4,4.1-3,5.4-3.9,5.3c-1.1-0.1-2.3-1.8-2.5-3.7c-0.7-5.7,0.1-9.6,2.5-11.6c2.6-2.3,7.3-2.3,14.3-0.3
				c2.1,0.6,4.1,0.8,5.6,0.9c-0.3,0.3-0.4,0.7-0.4,1.1c0,0.9,0.7,1.6,1.6,1.6c0.4,0,0.8-0.2,1.1-0.4c0,0,0,0.1,0,0.1
				c-0.2,1.2-0.8,2.1-1.6,2.4l-0.2,0.1c-3,1.4-8.6,3.9-9.6,7.8c-0.6,2.5,1.4,4.4,3.9,6.8c3.9,3.7,9.2,8.7,9.7,19.1
				c0,0.8,0.7,1.4,1.5,1.4c0,0,0.1,0,0.1,0c0.8,0,1.4-0.7,1.4-1.6c-0.6-11.6-6.7-17.3-10.7-21.1c-1.8-1.7-3.3-3.1-3.1-4
				c0.6-2.6,5.7-4.8,7.9-5.8l0.2-0.1c1.6-0.7,2.9-2.4,3.3-4.6c0.4-2-0.1-3.9-1.2-5c-0.6-0.7-1.5-0.7-3.1-0.8
				c-1.4-0.1-3.4-0.2-5.6-0.8c-2.9-0.9-11.9-3.5-17.1,0.9C87.1,15.8,85.9,20.5,86.7,27.3z"/>
			<path fill="#F16232" d="M85.8,12l-5.3-5.9C80,5.5,80.1,4.5,80.7,4c0.6-0.5,1.5-0.5,2.1,0.1l5.3,5.9c0.5,0.6,0.5,1.5-0.1,2.1
				c-0.3,0.3-0.6,0.4-1,0.4C86.5,12.5,86.1,12.3,85.8,12z"/>
			<path fill="#F16232" d="M83.9,16l-6.7-1.9c-0.8-0.2-1.3-1-1-1.8c0.2-0.8,1-1.3,1.8-1l6.7,1.9c0.8,0.2,1.3,1,1,1.8
				c-0.2,0.7-0.8,1.1-1.4,1.1C84.2,16.1,84,16.1,83.9,16z"/>
			<path fill="#F16232" d="M89,8.6l-1-6.8c-0.1-0.8,0.4-1.6,1.3-1.7C90.1,0,90.9,0.6,91,1.4l1,6.8c0.1,0.8-0.4,1.6-1.3,1.7
				c-0.1,0-0.1,0-0.2,0C89.8,9.9,89.2,9.4,89,8.6z"/>
			<circle fill="#F16232" cx="101.8" cy="18.3" r="1.6"/>
		</g>
	</g>
</g>
</svg>
