<?xml version="1.0" encoding="utf-8"?>
<!-- Generator: Adobe Illustrator 17.0.0, SVG Export Plug-In . SVG Version: 6.00 Build 0)  -->
<!DOCTYPE svg PUBLIC "-//W3C//DTD SVG 1.1//EN" "http://www.w3.org/Graphics/SVG/1.1/DTD/svg11.dtd">
<svg version="1.1" id="Layer_1" xmlns="http://www.w3.org/2000/svg" xmlns:xlink="http://www.w3.org/1999/xlink" x="0px" y="0px"
	 width="50px" height="50px" viewBox="0 0 50 50" enable-background="new 0 0 50 50" xml:space="preserve">
<g>
	<path fill="#222222" d="M14.167,0.367v27.738c0,7.729,4.209,12.559,11.661,12.559c4.692,0,8.349-2.208,10.143-5.935l9.453,2.554
		c-2.829,7.106-10.419,12.351-19.596,12.351c-12.834,0-21.252-7.866-21.252-21.941V0.367H14.167z"/>
</g>
<g>
	<path fill="#222222" d="M33.217,34.009l1.388,0.368"/>
	<path fill="#222222" d="M33.217,34.009c-1.397,2.545-4.356,4.068-7.533,4.068c-5.636,0-8.684-3.359-8.684-8.891V14h-1v15.046
		c0,6.371,3.356,10.326,9.867,10.326c4,0,7.199-1.999,8.741-4.996L33.217,34.009z"/>
</g>
</svg>
