<?xml version="1.0" encoding="utf-8"?>
<!-- Generator: Adobe Illustrator 16.2.1, SVG Export Plug-In . SVG Version: 6.00 Build 0)  -->
<!DOCTYPE svg PUBLIC "-//W3C//DTD SVG 1.1//EN" "http://www.w3.org/Graphics/SVG/1.1/DTD/svg11.dtd">
<svg version="1.1" id="Layer_1" xmlns="http://www.w3.org/2000/svg" xmlns:xlink="http://www.w3.org/1999/xlink" x="0px" y="0px"
	 width="768.125px" height="186.738px" viewBox="0 0 768.125 186.738" enable-background="new 0 0 768.125 186.738"
	 xml:space="preserve">
<g>
	<polygon fill="#1F1F1F" points="151.826,3.24 0,3.24 0,32.178 58.332,32.178 58.332,186.596 90.885,186.596 90.885,32.178 
		151.826,32.178 	"/>
	<path fill="#1F1F1F" d="M195.516,0.737l-73.119,185.858h36.199l12.757-37.182h62.843l13.378,37.182h35.93L209.78,0.737H195.516z
		 M180.619,124.528l22.04-67.719l22.018,67.719H180.619z"/>
	<path fill="#1F1F1F" d="M403.141,3.24v110.635L316.504,3.24H300.89v183.498h31.282V73.083l88.989,113.512h13.272V68.084
		c0-18.395,14.163-20.161,14.163-27.224c0-5.322,0-37.621,0-37.621h-14.163H403.141z"/>
	<path fill="#1F1F1F" d="M612.175,3.24h-37.054l-62.337,87.736V3.24h-32.559h-14.123c0,0,0,32.299,0,37.621
		c0,7.062,14.123,8.829,14.123,27.224v118.511h32.559v-50.191l20.422-27.918l51.049,78.109h38.938L554.729,83.362L612.175,3.24z"/>
	<path fill="#1F1F1F" d="M687.002,77.523c-3.956,6.391-5.92,12.903-5.92,19.555c0,12.841,3.738,22.706,11.205,29.522
		c7.455,6.824,18.02,10.234,31.716,10.234c13.599,0,24.345-3.512,32.256-10.458c7.907-6.983,11.866-16.736,11.866-29.299
		c0-6.102-2.438-12.621-7.286-19.555c-4.869-6.96-10.15-11.765-15.913-14.422c4.542-2.394,8.715-6.604,12.507-12.639
		c3.816-6.019,5.705-11.689,5.705-17.071c0-10.262-3.394-18.385-10.241-24.396C746.085,2.986,736.601,0,724.473,0
		c-11.293,0-20.554,2.986-27.764,8.996c-7.225,6.011-10.83,14.107-10.83,24.328c0,5.373,1.523,10.729,4.63,16.127
		c3.076,5.372,7.022,9.677,11.868,12.937C696.074,66.055,690.975,71.122,687.002,77.523z M724.473,19.998
		c4.527,0,8.169,1.188,10.926,3.54c2.751,2.351,4.108,5.525,4.108,9.498c0,3.446-1.309,7.316-3.905,11.537
		c-2.589,4.269-5.577,7.181-8.96,8.76c-4.112-1.579-8.009-4.372-11.692-8.379c-3.679-4.023-5.525-7.952-5.525-11.814
		C709.424,24.378,714.438,19.998,724.473,19.998z M721.933,71.894c15.085,8.829,22.653,17.826,22.653,26.992
		c0,5.374-1.938,9.712-5.762,13.003c-3.838,3.304-8.773,4.95-14.821,4.95c-5.73,0-10.376-1.904-13.997-5.619
		c-3.569-3.771-5.377-8.462-5.377-14.142C704.629,86.792,710.388,78.414,721.933,71.894z"/>
	<path fill="#1F1F1F" d="M639.303,186.596h123.361v-28.904H639.303V186.596z M740.725,163.183h1.677l3.828,11.927l3.747-11.927
		h1.655l3.63,17.708h-3.053l-1.845-9.54l-3.59,9.778h-1.106l-3.559-9.778l-1.897,9.54h-3.026L740.725,163.183z M722.038,163.183
		h14.651v2.796h-5.882v14.912h-3.149v-14.912h-5.62V163.183z"/>
	<path fill="#1F1F1F" d="M662.85,1.773h-9.405c-0.161,0.238-0.365,0.39-0.54,0.602l-13.602,18.938v18.054v15.517v80.137h23.547
		V1.773z"/>
</g>
</svg>
