<?xml version="1.0" encoding="utf-8"?>
<!-- Generator: Adobe Illustrator 17.0.0, SVG Export Plug-In . SVG Version: 6.00 Build 0)  -->
<!DOCTYPE svg PUBLIC "-//W3C//DTD SVG 1.1//EN" "http://www.w3.org/Graphics/SVG/1.1/DTD/svg11.dtd">
<svg version="1.1" id="Layer_1" xmlns="http://www.w3.org/2000/svg" xmlns:xlink="http://www.w3.org/1999/xlink" x="0px" y="0px"
	 width="50.5px" height="60.625px" viewBox="0 0 50.5 60.625" enable-background="new 0 0 50.5 60.625" xml:space="preserve">
<g>
	<path fill="none" stroke="#FFFFFF" stroke-width="2" stroke-linecap="round" stroke-linejoin="round" stroke-miterlimit="10" d="
		M30.998,34.233c0,1.145-1.322,2.463-2.463,2.463h-6.569c-1.145,0-2.463-1.318-2.463-2.463v-8.212c0-1.14,1.318-2.463,2.463-2.463
		h6.569c1.142,0,2.463,1.323,2.463,2.463V34.233z"/>
	<path fill="none" stroke="#FFFFFF" stroke-width="2" stroke-linecap="round" stroke-linejoin="round" stroke-miterlimit="10" d="
		M19.794,25.034L4.721,20.273c-1.326-0.443-3.285,0.215-3.285,1.642v16.423c0,1.431,1.958,2.086,3.285,1.642l15.071-4.759"/>
	
		<line fill="none" stroke="#FFFFFF" stroke-width="2" stroke-linecap="round" stroke-linejoin="round" stroke-miterlimit="10" x1="14.575" y1="30.127" x2="19.502" y2="30.127"/>
	<path fill="none" stroke="#FFFFFF" stroke-width="2" stroke-linecap="round" stroke-linejoin="round" stroke-miterlimit="10" d="
		M30.706,25.034l15.073-4.761c1.326-0.443,3.285,0.215,3.285,1.642v16.423c0,1.431-1.958,2.086-3.285,1.642l-15.071-4.759"/>
	
		<line fill="none" stroke="#FFFFFF" stroke-width="2" stroke-linecap="round" stroke-linejoin="round" stroke-miterlimit="10" x1="35.925" y1="30.127" x2="30.998" y2="30.127"/>
</g>
</svg>
